<?xml version="1.0" encoding="utf-8" standalone="no"?>
<!DOCTYPE svg PUBLIC "-//W3C//DTD SVG 1.1//EN"
  "http://www.w3.org/Graphics/SVG/1.1/DTD/svg11.dtd">
<!-- Created with matplotlib (http://matplotlib.sourceforge.net/) -->
<svg height="187pt" version="1.1" viewBox="0 0 295 187" width="295pt" xmlns="http://www.w3.org/2000/svg" xmlns:xlink="http://www.w3.org/1999/xlink">
 <defs>
  <style type="text/css">
*{stroke-linecap:square;stroke-linejoin:round;}
  </style>
 </defs>
 <g id="figure_1">
  <g id="patch_1">
   <path d="
M0 187.2
L295.2 187.2
L295.2 0
L0 0
z
" style="fill:#ffffff;"/>
  </g>
  <g id="axes_1">
   <g id="patch_2">
    <path d="
M56.8023 149.76
L272.823 149.76
L272.823 18.72
L56.8023 18.72
z
" style="fill:#ffffff;"/>
   </g>
   <g id="line2d_1">
    <path clip-path="url(#p40f4adbceb)" d="
M56.8023 72.2386
L57.0184 59.2213
L57.2344 70.3689
L57.4504 67.4665
L57.6664 69.174
L57.8824 68.483
L58.0985 74.3945
L58.3145 66.2417
L58.7465 70.5171
L58.9625 68.785
L59.1786 64.999
L59.3946 76.7086
L59.8266 64.1393
L60.0426 68.1401
L60.2587 65.3567
L60.4747 73.7844
L60.6907 63.6868
L60.9067 76.5111
L61.3388 66.3181
L61.5548 75.2777
L61.7708 57.5944
L61.9868 72.9347
L62.2029 58.4555
L62.6349 67.9749
L62.8509 69.649
L63.0669 62.0485
L63.283 77.2642
L63.499 63.0016
L63.715 65.5066
L64.147 73.0786
L64.3631 71.1492
L64.5791 66.5303
L64.7951 73.4055
L65.2272 59.6951
L65.4432 60.7365
L65.6592 67.8955
L65.8752 67.5137
L66.0912 71.9672
L66.5233 57.9285
L66.7393 60.2422
L66.9553 58.9243
L67.3874 82.2128
L67.8194 61.4342
L68.0354 67.6355
L68.2514 53.3126
L68.6835 70.3267
L68.8995 73.023
L69.1155 61.3084
L69.3315 70.8131
L69.5476 68.0306
L69.7636 68.1103
L69.9796 67.4204
L70.1956 74.9162
L70.4117 68.5888
L70.6277 75.1131
L70.8437 64.0195
L71.0597 60.11
L71.2757 60.1167
L71.4918 65.4137
L71.7078 62.794
L71.9238 68.3689
L72.1398 65.9136
L72.3558 57.8236
L72.5719 59.6563
L72.7879 68.9013
L73.0039 70.4747
L73.2199 69.2988
L73.4359 66.7302
L73.652 75.3294
L73.868 65.9027
L74.084 72.2579
L74.3 69.9774
L74.5161 70.6204
L74.7321 74.768
L74.9481 63.5047
L75.3801 69.7855
L75.5962 69.4933
L75.8122 72.387
L76.0282 68.3822
L76.4602 74.2069
L76.6763 65.7585
L76.8923 73.5085
L77.3243 58.5002
L77.5403 69.1078
L77.7564 55.4907
L77.9724 59.022
L78.1884 71.0469
L78.4044 69.5655
L78.6205 77.5339
L78.8365 65.5735
L79.0525 67.9561
L79.2685 67.2331
L79.4845 78.8975
L79.7006 63.2261
L79.9166 73.339
L80.1326 71.1473
L80.3486 79.063
L80.5646 59.603
L80.7807 69.5782
L80.9967 69.1742
L81.2127 70.5341
L81.4287 66.5853
L81.6447 65.311
L81.8608 63.0342
L82.0768 72.9646
L82.2928 67.9462
L82.5088 57.152
L82.7249 66.0002
L82.9409 66.4122
L83.1569 62.6112
L83.3729 77.095
L83.5889 54.3418
L83.805 66.5438
L84.021 68.4763
L84.237 69.0888
L84.453 80.6399
L84.669 56.8659
L84.8851 61.6312
L85.1011 63.8248
L85.5331 79.1745
L85.9652 70.7661
L86.1812 75.0165
L86.3972 66.2827
L86.6132 66.1625
L86.8293 59.4188
L87.0453 76.8494
L87.2613 74.1033
L87.4773 73.3331
L87.6933 76.02
L87.9094 63.1108
L88.1254 71.687
L88.3414 59.0684
L88.5574 69.473
L88.7734 70.263
L88.9895 75.2447
L89.2055 71.1907
L89.4215 78.1698
L89.6375 65.8021
L90.0696 67.8514
L90.2856 72.0402
L90.5016 63.5585
L90.7176 75.4671
L90.9336 63.6664
L91.3657 76.6263
L91.5817 69.01
L92.0138 62.3144
L92.2298 75.3057
L92.4458 56.2596
L93.0939 70.3661
L93.3099 64.6171
L93.5259 66.9857
L93.7419 75.0182
L93.9579 66.6413
L94.174 75.2778
L94.39 69.709
L94.606 69.3335
L94.822 77.6148
L95.2541 63.864
L95.6861 63.6645
L95.9021 62.2367
L96.1182 62.5811
L96.3342 74.7512
L96.5502 66.88
L96.7662 66.1367
L97.1983 55.24
L97.6303 72.9284
L97.8463 62.0885
L98.0623 72.866
L98.2784 66.1916
L98.4944 71.3422
L98.9264 59.9522
L99.1424 67.4846
L99.3585 68.1694
L99.5745 67.4008
L99.7905 65.3412
L100.007 73.3231
L100.223 61.3955
L100.439 65.5906
L100.655 65.7875
L100.871 75.1421
L101.087 72.6017
L101.303 62.4477
L101.519 83.5526
L101.735 61.5911
L101.951 71.6163
L102.167 70.8702
L102.383 79.3703
L102.599 67.8524
L102.815 67.2885
L103.031 65.2454
L103.247 67.2262
L103.463 65.9483
L103.895 69.6975
L104.111 64.4367
L104.327 55.5464
L104.543 57.3123
L104.759 73.6906
L105.191 60.0907
L105.407 62.5337
L105.623 63.6528
L105.839 75.114
L106.271 60.0143
L106.703 70.9515
L106.919 64.5861
L107.135 76.1742
L107.351 57.9066
L107.567 63.8667
L107.783 61.3612
L107.999 51.6981
L108.215 47.9497
L108.431 60.5415
L108.647 66.6457
L109.079 56.4145
L109.295 61.7983
L109.727 50.995
L109.943 51.7138
L110.16 51.4986
L110.376 70.582
L110.808 51.3109
L111.024 55.4395
L111.24 65.4706
L111.456 49.3316
L111.672 57.3666
L111.888 48.7003
L112.104 62.1704
L112.536 51.2992
L112.752 61.8189
L112.968 60.3651
L113.184 54.6362
L113.4 60.0348
L113.616 60.9925
L113.832 64.0238
L114.048 50.6671
L114.264 52.4545
L114.48 50.1683
L114.696 59.2615
L114.912 50.8311
L115.128 55.8153
L115.344 55.242
L115.56 69.477
L115.776 57.1197
L115.992 54.1095
L116.208 70.756
L116.424 59.9932
L116.64 40.982
L117.072 59.5168
L117.288 45.2228
L117.504 53.8173
L117.72 56.8913
L117.936 57.3383
L118.584 46.09
L118.8 47.7998
L119.016 52.562
L119.232 67.4348
L119.448 51.4529
L119.664 55.3426
L120.096 50.8981
L120.313 52.9222
L120.529 41.8736
L120.745 43.0433
L120.961 57.3737
L121.177 63.6372
L121.609 47.5671
L121.825 54.7133
L122.041 52.9497
L122.257 39.8478
L122.473 54.9752
L122.689 40.0469
L122.905 55.2564
L123.121 39.7207
L123.337 47.3471
L123.553 49.5787
L123.769 49.045
L124.201 43.6384
L124.417 42.9448
L124.633 45.1344
L124.849 40.6156
L125.065 47.6099
L125.281 47.7797
L125.497 42.168
L125.713 49.3276
L125.929 48.8376
L126.145 39.3466
L126.361 38.582
L126.793 46.9245
L127.009 58.0325
L127.225 42.4874
L127.441 41.8734
L127.657 55.4933
L128.089 48.1146
L128.305 53.8024
L128.521 49.3571
L128.737 50.0934
L129.385 37.2625
L129.601 51.3122
L129.817 49.6952
L130.033 49.4546
L130.249 40.8567
L130.465 52.7551
L130.682 50.0776
L130.898 38.8066
L131.33 42.3627
L131.546 43.6459
L131.762 51.7557
L131.978 42.0259
L132.41 52.0555
L132.626 40.6395
L132.842 44.8108
L133.058 46.7127
L133.274 45.3499
L133.706 34.4195
L133.922 47.3632
L134.138 42.0222
L134.354 55.9701
L134.57 43.4353
L134.786 47.9981
L135.002 46.3942
L135.218 51.6477
L135.434 30.5392
L135.866 48.0132
L136.082 42.7993
L136.298 46.6121
L136.514 39.9096
L136.73 40.5586
L136.946 42.3651
L137.162 36.682
L137.378 43.8702
L137.81 38.6892
L138.026 50.9031
L138.242 44.6833
L138.458 44.8164
L138.674 46.9806
L138.89 39.8866
L139.322 52.3841
L139.538 37.2203
L139.754 48.6011
L139.97 49.3148
L140.186 38.8119
L140.402 40.9873
L140.618 45.6608
L140.834 30.8287
L141.267 46.6754
L141.483 40.2909
L141.699 41.1214
L141.915 31.3647
L142.347 50.5032
L142.563 54.3806
L142.779 41.4254
L142.995 43.8757
L143.211 44.4798
L143.427 36.5977
L143.643 47.9426
L144.075 38.1395
L144.291 41.7539
L144.507 36.2643
L144.723 38.409
L144.939 46.0385
L145.155 41.925
L145.371 45.206
L145.587 51.8937
L145.803 50.4893
L146.019 40.7154
L146.235 41.8525
L146.451 51.3796
L146.883 33.8308
L147.099 52.5474
L147.315 40.0605
L147.531 45.2829
L147.747 37.3939
L147.963 47.3465
L148.179 48.7052
L148.395 41.778
L148.611 40.3448
L148.827 35.6532
L149.043 45.3035
L149.259 32.561
L149.691 41.5042
L149.907 35.9839
L150.123 41.3403
L150.555 39.9758
L150.771 36.4356
L150.987 41.4697
L151.204 43.322
L151.42 26.5197
L151.636 44.0489
L151.852 43.854
L152.068 26.2107
L152.284 42.1321
L152.5 35.5441
L152.716 48.2434
L152.932 37.0641
L153.148 44.2595
L153.364 42.6423
L153.58 46.4717
L153.796 40.2177
L154.012 43.5708
L154.228 40.3481
L154.444 45.6413
L154.66 39.4827
L154.876 38.4085
L155.092 42.6447
L155.524 31.9388
L155.74 38.2954
L156.172 44.6012
L156.388 49.4838
L156.604 48.3769
L156.82 40.6081
L157.036 45.7603
L157.252 36.7805
L157.468 37.7527
L157.684 48.3584
L157.9 48.3245
L158.116 48.5767
L158.332 37.5827
L158.548 43.8303
L158.764 37.5099
L158.98 41.049
L159.196 40.7933
L159.412 36.732
L159.628 36.9838
L160.06 54.3484
L160.276 36.7136
L160.492 47.1518
L160.708 34.1989
L160.924 38.4692
L161.14 47.0697
L161.356 42.1417
L161.573 39.9703
L162.005 39.3182
L162.221 42.5172
L162.437 33.8198
L162.653 51.4323
L162.869 32.7067
L163.085 35.3899
L163.301 39.8568
L163.517 47.6273
L163.733 36.9778
L163.949 31.9965
L164.381 40.5474
L164.597 46.8013
L164.813 38.9124
L165.029 40.556
L165.245 52.4957
L165.461 38.507
L165.677 52.5464
L165.893 53.3015
L166.109 36.8636
L166.325 40.1584
L166.541 36.8567
L166.757 51.6828
L167.189 41.6308
L167.405 39.9771
L167.621 32.1824
L167.837 30.4496
L168.053 55.0615
L168.269 43.8517
L168.701 39.8739
L168.917 42.9103
L169.133 41.2843
L169.349 28.9137
L169.565 53.6761
L169.781 29.0468
L169.997 46.688
L170.213 37.2412
L170.429 45.0621
L170.645 33.0026
L170.861 31.8518
L171.077 46.2635
L171.293 38.9697
L171.509 41.4435
L171.725 35.0872
L171.942 45.1977
L172.158 32.4592
L172.374 54.1947
L172.59 43.592
L172.806 46.892
L173.022 35.772
L173.238 34.233
L173.454 36.5588
L173.67 52.5702
L173.886 45.7993
L174.102 52.1348
L174.534 41.6596
L174.75 44.1509
L174.966 39.3003
L175.182 44.0707
L175.398 32.2795
L175.83 44.1247
L176.046 36.2405
L176.262 51.7607
L176.478 39.9213
L176.694 42.3305
L176.91 29.7721
L177.126 38.0092
L177.342 34.6182
L177.558 43.9468
L177.774 42.0691
L177.99 42.2866
L178.206 39.412
L178.422 39.9417
L178.638 51.8264
L178.854 29.989
L179.07 35.3087
L179.286 45.8758
L179.718 38.0198
L179.934 52.779
L180.366 36.3729
L180.582 49.7545
L181.014 29.4651
L181.23 43.0788
L181.662 52.2388
L181.878 44.5139
L182.095 42.8491
L182.311 26.7658
L182.743 38.7625
L182.959 35.7749
L183.175 46.4528
L183.391 45.2477
L183.607 42.1819
L183.823 31.7278
L184.039 40.0963
L184.255 40.2241
L184.471 42.5788
L184.903 45.2076
L185.119 39.178
L185.335 45.0579
L185.767 28.5151
L185.983 39.8711
L186.199 43.0187
L186.415 42.7339
L186.631 38.2175
L186.847 39.2828
L187.063 44.6396
L187.279 35.8319
L187.495 47.97
L187.711 46.7872
L187.927 51.8371
L188.143 47.5434
L188.575 28.2207
L188.791 31.496
L189.007 26.0335
L189.223 47.9779
L189.439 50.148
L189.655 37.868
L189.871 41.7998
L190.087 43.404
L190.303 38.7411
L190.519 37.1704
L190.735 36.8267
L190.951 41.177
L191.167 40.2396
L191.383 42.5689
L191.599 42.5056
L191.815 28.8662
L192.031 44.0668
L192.247 40.0213
L192.464 50.5461
L192.68 38.8549
L192.896 37.7442
L193.112 39.7693
L193.328 36.1693
L193.544 37.6652
L193.976 44.3294
L194.192 36.8086
L194.624 50.2727
L194.84 44.5603
L195.056 43.0108
L195.272 46.3973
L195.488 34.3457
L196.136 38.2151
L196.352 33.441
L196.568 34.0334
L196.784 32.6147
L197.216 44.1014
L197.648 34.608
L197.864 36.3681
L198.08 43.0093
L198.296 28.4025
L198.512 47.0635
L198.728 37.3902
L198.944 41.3464
L199.16 40.6093
L199.376 36.3169
L199.592 36.5021
L199.808 51.1214
L200.024 41.0418
L200.456 34.3368
L200.672 48.6554
L200.888 38.4966
L201.104 41.042
L201.32 46.567
L201.536 41.9831
L201.752 41.3144
L201.968 37.1838
L202.184 44.2159
L202.4 35.6504
L202.833 51.5105
L203.049 48.3853
L203.265 34.9384
L203.481 46.238
L203.697 46.0066
L204.129 37.9287
L204.345 43.0324
L204.561 41.7173
L204.777 31.9273
L204.993 41.5381
L205.425 45.6086
L205.641 53.749
L205.857 34.8622
L206.073 31.2107
L206.289 46.4298
L206.505 40.0616
L206.721 39.7531
L206.937 42.1404
L207.153 40.6323
L207.369 46.1644
L207.585 42.4095
L207.801 40.9651
L208.017 30.2951
L208.233 29.5581
L208.449 44.4892
L208.881 33.1947
L209.097 38.4541
L209.313 40.9949
L209.529 41.6521
L209.745 36.669
L210.177 47.9622
L210.393 33.5913
L210.609 39.6218
L210.825 36.2767
L211.041 50.9657
L211.473 31.7571
L211.689 38.0855
L211.905 33.9134
L212.121 40.3934
L212.337 50.7929
L212.553 38.2177
L212.769 42.2045
L212.986 48.9781
L213.202 35.24
L213.418 37.4425
L213.634 29.2986
L213.85 41.3409
L214.066 36.1192
L214.282 49.4132
L214.498 39.9034
L214.714 35.3349
L214.93 35.8593
L215.146 36.8204
L215.362 46.4345
L215.578 35.7455
L215.794 39.9977
L216.01 32.4588
L216.226 34.2197
L216.442 44.0035
L216.658 35.0318
L216.874 43.9602
L217.09 38.8405
L217.306 45.984
L217.522 39.1338
L217.738 43.9683
L217.954 45.6047
L218.17 42.8955
L218.386 43.3537
L218.602 33.2617
L218.818 36.4794
L219.034 32.8177
L219.25 46.1277
L219.466 39.5778
L219.682 46.8585
L219.898 43.848
L220.114 33.6948
L220.546 45.2666
L220.762 45.0097
L220.978 28.2795
L221.842 41.9788
L222.058 41.2255
L222.274 36.3229
L222.49 36.5153
L222.706 37.6649
L222.922 36.4286
L223.138 37.8107
L223.355 36.4314
L223.571 37.4489
L223.787 31.3854
L224.003 45.0192
L224.219 49.5906
L224.435 40.5934
L224.651 39.3065
L224.867 38.8926
L225.083 36.0653
L225.299 39.2646
L225.515 45.3534
L225.731 38.0455
L225.947 44.1169
L226.163 37.2456
L226.379 38.9709
L226.595 54.2737
L226.811 43.8565
L227.027 40.9372
L227.459 39.5698
L227.675 34.6298
L227.891 40.8703
L228.107 42.9879
L228.323 33.6406
L228.539 43.5688
L228.755 42.0676
L228.971 41.6956
L229.187 33.2327
L229.403 35.9658
L229.619 37.1663
L229.835 33.3345
L230.051 34.0641
L230.267 41.9147
L230.483 43.4913
L230.699 42.0489
L230.915 33.2539
L231.131 45.7017
L231.347 37.0301
L231.563 36.4582
L231.779 32.6781
L231.995 42.2243
L232.211 31.6838
L232.427 37.7396
L232.643 21.24
L233.075 41.6096
L233.508 36.8654
L233.724 37.1585
L233.94 40.6183
L234.156 30.4455
L234.588 41.5295
L234.804 39.2466
L235.02 45.1685
L235.236 42.5816
L235.452 34.5264
L235.668 49.9431
L235.884 46.5299
L236.1 37.0356
L236.316 46.8047
L236.748 50.4523
L236.964 45.3037
L237.18 46.39
L237.396 40.6989
L237.612 46.1389
L237.828 38.4794
L238.044 36.3558
L238.26 47.3443
L238.692 37.481
L238.908 32.7024
L239.34 45.9349
L239.772 33.0563
L239.988 43.2159
L240.204 31.7873
L240.42 41.8886
L240.636 35.0249
L240.852 45.7071
L241.068 39.4161
L241.284 36.698
L241.5 42.3478
L241.716 43.4781
L241.932 37.9239
L242.148 38.1052
L242.364 46.446
L242.58 28.2606
L242.796 43.6533
L243.012 46.7233
L243.228 38.2411
L243.444 40.8584
L244.093 34.8025
L244.309 38.7345
L244.525 36.1889
L244.741 46.2827
L244.957 32.143
L245.173 46.8301
L245.389 35.5788
L245.605 38.8624
L245.821 33.3145
L246.037 35.4738
L246.253 41.3238
L246.469 38.7693
L246.685 37.6862
L246.901 40.7223
L247.117 36.7976
L247.333 27.6096
L247.549 40.3772
L247.765 34.9502
L247.981 35.0026
L248.197 45.8091
L248.413 35.3325
L248.845 50.1902
L249.061 36.4757
L249.277 47.6031
L249.493 42.8852
L249.709 41.8737
L249.925 39.1188
L250.141 38.0707
L250.357 40.5664
L250.573 37.4593
L250.789 36.9511
L251.005 39.4243
L251.221 34.4977
L251.437 38.2586
L251.653 38.3231
L251.869 39.1592
L252.085 46.6374
L252.301 46.3894
L252.517 38.6327
L252.733 41.5257
L252.949 27.0117
L253.165 40.1433
L253.381 44.1396
L253.597 37.0175
L253.813 51.7622
L254.246 33.0074
L254.462 46.3026
L254.678 47.1919
L254.894 43.7377
L255.11 46.0296
L255.326 51.787
L255.542 28.2771
L255.758 41.4546
L255.974 34.4411
L256.406 54.2644
L256.622 35.4524
L256.838 37.9035
L257.054 36.8974
L257.27 46.985
L257.486 37.758
L257.702 34.5614
L257.918 35.5738
L258.35 42.3375
L258.566 49.1859
L258.782 37.1729
L258.998 32.1636
L259.214 42.637
L259.43 34.763
L259.646 31.8705
L259.862 42.118
L260.078 35.8322
L260.294 44.4329
L260.51 41.8046
L260.726 42.7743
L260.942 45.9865
L261.158 38.9134
L261.374 38.236
L261.59 40.4565
L261.806 44.974
L262.022 44.2373
L262.454 39.7621
L262.67 39.1416
L262.886 40.8844
L263.102 38.2233
L263.534 46.4687
L263.75 28.7099
L263.966 44.1874
L264.182 45.3369
L264.399 32.1336
L264.615 37.0204
L264.831 38.4178
L265.047 38.4611
L265.263 34.737
L265.479 35.041
L265.695 38.3767
L265.911 36.0961
L266.127 38.2902
L266.559 49.801
L266.775 42.5794
L266.991 31.1926
L267.207 42.9345
L267.423 36.3409
L267.639 36.0259
L267.855 36.7076
L268.071 39.6745
L268.287 37.7025
L268.503 31.2043
L268.719 41.7358
L268.935 46.715
L269.151 44.1394
L269.367 46.9138
L269.583 30.2844
L269.799 32.6142
L270.015 39.2516
L270.231 40.6134
L270.447 46.9752
L270.663 29.6232
L270.879 36.7464
L271.095 38.2224
L271.311 42.0082
L271.527 37.6645
L271.743 40.9782
L271.959 34.5419
L272.175 37.1505
L272.391 35.2122
L272.607 34.9327
L272.607 34.9327" style="fill:none;stroke:#0000ff;"/>
   </g>
   <g id="line2d_2">
    <path clip-path="url(#p40f4adbceb)" d="
M60.0426 102.222
L60.2587 99.0254
L60.4747 99.2797
L60.6907 92.1676
L60.9067 95.941
L61.1228 85.9154
L61.3388 83.5528
L61.7708 83.5528
L61.9868 98.5202
L62.2029 91.8231
L62.4189 99.147
L62.6349 97.6919
L63.0669 89.2692
L63.283 90.7504
L63.499 83.5528
L65.2272 83.5528
L65.6592 88.949
L65.8752 85.0085
L66.0912 83.5528
L66.5233 83.5528
L66.7393 88.8541
L66.9553 90.542
L67.1713 93.5093
L67.6034 83.5528
L68.2514 83.5528
L68.4675 97.8791
L68.6835 95.4639
L69.1155 83.5528
L69.3315 83.6784
L69.7636 83.5528
L71.0597 83.5528
L71.4918 87.0605
L71.7078 84.088
L71.9238 83.5528
L72.3558 83.5528
L72.5719 88.3632
L72.7879 90.1635
L73.0039 85.5487
L73.2199 83.5528
L77.3243 83.5528
L77.5403 87.6231
L77.7564 83.5528
L77.9724 92.0674
L78.1884 94.4339
L78.6205 84.1871
L78.8365 83.5528
L80.5646 83.5528
L80.7807 85.1639
L80.9967 83.5528
L82.5088 83.5528
L82.7249 88.2335
L83.1569 83.5528
L83.5889 83.5528
L83.805 92.2859
L84.453 83.5528
L84.669 83.5528
L84.8851 88.1162
L85.1011 87.6019
L85.5331 83.5528
L86.8293 83.5528
L87.0453 85.2466
L87.2613 83.5528
L88.3414 83.5528
L88.5574 85.5972
L88.7734 83.5528
L92.4458 83.5528
L92.6618 89.6551
L92.8778 90.1657
L93.3099 83.5528
L96.9822 83.5528
L97.1983 85.4882
L97.4143 93.3119
L97.6303 89.4889
L97.8463 83.5528
L98.9264 83.5528
L99.1424 84.5463
L99.3585 83.5528
L104.327 83.5528
L104.759 95.3286
L105.191 83.8167
L105.407 84.2951
L105.623 83.5528
L106.271 83.5528
L106.487 84.0628
L106.703 83.5528
L107.351 83.5528
L107.567 86.7923
L107.783 83.6395
L107.999 83.5528
L108.431 118.101
L108.647 117.61
L108.863 112.785
L109.079 112.092
L109.295 116.87
L109.511 115.025
L109.727 118.466
L110.16 147.24
L110.16 147.24" style="fill:none;stroke:#008000;"/>
   </g>
   <g id="matplotlib.axis_1">
    <g id="xtick_1">
     <g id="line2d_3">
      <defs>
       <path d="
M0 0
L0 -4" id="mb55b7847fd"/>
      </defs>
      <g>
       <use style="stroke:#000000;stroke-linecap:butt;stroke-width:0.5;" x="56.8023323615" xlink:href="#mb55b7847fd" y="149.76"/>
      </g>
     </g>
     <g id="line2d_4">
      <defs>
       <path d="
M0 0
L0 4" id="m55befb0231"/>
      </defs>
      <g>
       <use style="stroke:#000000;stroke-linecap:butt;stroke-width:0.5;" x="56.8023323615" xlink:href="#m55befb0231" y="18.72"/>
      </g>
     </g>
     <g id="text_1">
      <!-- 0 -->
      <defs>
       <path d="
M31.7812 66.4062
Q24.1719 66.4062 20.3281 58.9062
Q16.5 51.4219 16.5 36.375
Q16.5 21.3906 20.3281 13.8906
Q24.1719 6.39062 31.7812 6.39062
Q39.4531 6.39062 43.2812 13.8906
Q47.125 21.3906 47.125 36.375
Q47.125 51.4219 43.2812 58.9062
Q39.4531 66.4062 31.7812 66.4062
M31.7812 74.2188
Q44.0469 74.2188 50.5156 64.5156
Q56.9844 54.8281 56.9844 36.375
Q56.9844 17.9688 50.5156 8.26562
Q44.0469 -1.42188 31.7812 -1.42188
Q19.5312 -1.42188 13.0625 8.26562
Q6.59375 17.9688 6.59375 36.375
Q6.59375 54.8281 13.0625 64.5156
Q19.5312 74.2188 31.7812 74.2188" id="BitstreamVeraSans-Roman-30"/>
      </defs>
      <g transform="translate(53.7788948615 162.66625)scale(0.12 -0.12)">
       <use xlink:href="#BitstreamVeraSans-Roman-30"/>
      </g>
     </g>
    </g>
    <g id="xtick_2">
     <g id="line2d_5">
      <defs>
       <path d="
M0 0
L0 -4" id="mb55b7847fd"/>
      </defs>
      <g>
       <use style="stroke:#000000;stroke-linecap:butt;stroke-width:0.5;" x="100.006530612" xlink:href="#mb55b7847fd" y="149.76"/>
      </g>
     </g>
     <g id="line2d_6">
      <defs>
       <path d="
M0 0
L0 4" id="m55befb0231"/>
      </defs>
      <g>
       <use style="stroke:#000000;stroke-linecap:butt;stroke-width:0.5;" x="100.006530612" xlink:href="#m55befb0231" y="18.72"/>
      </g>
     </g>
     <g id="text_2">
      <!-- 200 -->
      <defs>
       <path d="
M19.1875 8.29688
L53.6094 8.29688
L53.6094 0
L7.32812 0
L7.32812 8.29688
Q12.9375 14.1094 22.625 23.8906
Q32.3281 33.6875 34.8125 36.5312
Q39.5469 41.8438 41.4219 45.5312
Q43.3125 49.2188 43.3125 52.7812
Q43.3125 58.5938 39.2344 62.25
Q35.1562 65.9219 28.6094 65.9219
Q23.9688 65.9219 18.8125 64.3125
Q13.6719 62.7031 7.8125 59.4219
L7.8125 69.3906
Q13.7656 71.7812 18.9375 73
Q24.125 74.2188 28.4219 74.2188
Q39.75 74.2188 46.4844 68.5469
Q53.2188 62.8906 53.2188 53.4219
Q53.2188 48.9219 51.5312 44.8906
Q49.8594 40.875 45.4062 35.4062
Q44.1875 33.9844 37.6406 27.2188
Q31.1094 20.4531 19.1875 8.29688" id="BitstreamVeraSans-Roman-32"/>
      </defs>
      <g transform="translate(89.3921556122 162.66625)scale(0.12 -0.12)">
       <use xlink:href="#BitstreamVeraSans-Roman-32"/>
       <use x="63.623046875" xlink:href="#BitstreamVeraSans-Roman-30"/>
       <use x="127.24609375" xlink:href="#BitstreamVeraSans-Roman-30"/>
      </g>
     </g>
    </g>
    <g id="xtick_3">
     <g id="line2d_7">
      <defs>
       <path d="
M0 0
L0 -4" id="mb55b7847fd"/>
      </defs>
      <g>
       <use style="stroke:#000000;stroke-linecap:butt;stroke-width:0.5;" x="143.210728863" xlink:href="#mb55b7847fd" y="149.76"/>
      </g>
     </g>
     <g id="line2d_8">
      <defs>
       <path d="
M0 0
L0 4" id="m55befb0231"/>
      </defs>
      <g>
       <use style="stroke:#000000;stroke-linecap:butt;stroke-width:0.5;" x="143.210728863" xlink:href="#m55befb0231" y="18.72"/>
      </g>
     </g>
     <g id="text_3">
      <!-- 400 -->
      <defs>
       <path d="
M37.7969 64.3125
L12.8906 25.3906
L37.7969 25.3906
z

M35.2031 72.9062
L47.6094 72.9062
L47.6094 25.3906
L58.0156 25.3906
L58.0156 17.1875
L47.6094 17.1875
L47.6094 0
L37.7969 0
L37.7969 17.1875
L4.89062 17.1875
L4.89062 26.7031
z
" id="BitstreamVeraSans-Roman-34"/>
      </defs>
      <g transform="translate(132.450103863 162.66625)scale(0.12 -0.12)">
       <use xlink:href="#BitstreamVeraSans-Roman-34"/>
       <use x="63.623046875" xlink:href="#BitstreamVeraSans-Roman-30"/>
       <use x="127.24609375" xlink:href="#BitstreamVeraSans-Roman-30"/>
      </g>
     </g>
    </g>
    <g id="xtick_4">
     <g id="line2d_9">
      <defs>
       <path d="
M0 0
L0 -4" id="mb55b7847fd"/>
      </defs>
      <g>
       <use style="stroke:#000000;stroke-linecap:butt;stroke-width:0.5;" x="186.414927114" xlink:href="#mb55b7847fd" y="149.76"/>
      </g>
     </g>
     <g id="line2d_10">
      <defs>
       <path d="
M0 0
L0 4" id="m55befb0231"/>
      </defs>
      <g>
       <use style="stroke:#000000;stroke-linecap:butt;stroke-width:0.5;" x="186.414927114" xlink:href="#m55befb0231" y="18.72"/>
      </g>
     </g>
     <g id="text_4">
      <!-- 600 -->
      <defs>
       <path d="
M33.0156 40.375
Q26.375 40.375 22.4844 35.8281
Q18.6094 31.2969 18.6094 23.3906
Q18.6094 15.5312 22.4844 10.9531
Q26.375 6.39062 33.0156 6.39062
Q39.6562 6.39062 43.5312 10.9531
Q47.4062 15.5312 47.4062 23.3906
Q47.4062 31.2969 43.5312 35.8281
Q39.6562 40.375 33.0156 40.375
M52.5938 71.2969
L52.5938 62.3125
Q48.875 64.0625 45.0938 64.9844
Q41.3125 65.9219 37.5938 65.9219
Q27.8281 65.9219 22.6719 59.3281
Q17.5312 52.7344 16.7969 39.4062
Q19.6719 43.6562 24.0156 45.9219
Q28.375 48.1875 33.5938 48.1875
Q44.5781 48.1875 50.9531 41.5156
Q57.3281 34.8594 57.3281 23.3906
Q57.3281 12.1562 50.6875 5.35938
Q44.0469 -1.42188 33.0156 -1.42188
Q20.3594 -1.42188 13.6719 8.26562
Q6.98438 17.9688 6.98438 36.375
Q6.98438 53.6562 15.1875 63.9375
Q23.3906 74.2188 37.2031 74.2188
Q40.9219 74.2188 44.7031 73.4844
Q48.4844 72.75 52.5938 71.2969" id="BitstreamVeraSans-Roman-36"/>
      </defs>
      <g transform="translate(175.779927114 162.66625)scale(0.12 -0.12)">
       <use xlink:href="#BitstreamVeraSans-Roman-36"/>
       <use x="63.623046875" xlink:href="#BitstreamVeraSans-Roman-30"/>
       <use x="127.24609375" xlink:href="#BitstreamVeraSans-Roman-30"/>
      </g>
     </g>
    </g>
    <g id="xtick_5">
     <g id="line2d_11">
      <defs>
       <path d="
M0 0
L0 -4" id="mb55b7847fd"/>
      </defs>
      <g>
       <use style="stroke:#000000;stroke-linecap:butt;stroke-width:0.5;" x="229.619125364" xlink:href="#mb55b7847fd" y="149.76"/>
      </g>
     </g>
     <g id="line2d_12">
      <defs>
       <path d="
M0 0
L0 4" id="m55befb0231"/>
      </defs>
      <g>
       <use style="stroke:#000000;stroke-linecap:butt;stroke-width:0.5;" x="229.619125364" xlink:href="#m55befb0231" y="18.72"/>
      </g>
     </g>
     <g id="text_5">
      <!-- 800 -->
      <defs>
       <path d="
M31.7812 34.625
Q24.75 34.625 20.7188 30.8594
Q16.7031 27.0938 16.7031 20.5156
Q16.7031 13.9219 20.7188 10.1562
Q24.75 6.39062 31.7812 6.39062
Q38.8125 6.39062 42.8594 10.1719
Q46.9219 13.9688 46.9219 20.5156
Q46.9219 27.0938 42.8906 30.8594
Q38.875 34.625 31.7812 34.625
M21.9219 38.8125
Q15.5781 40.375 12.0312 44.7188
Q8.5 49.0781 8.5 55.3281
Q8.5 64.0625 14.7188 69.1406
Q20.9531 74.2188 31.7812 74.2188
Q42.6719 74.2188 48.875 69.1406
Q55.0781 64.0625 55.0781 55.3281
Q55.0781 49.0781 51.5312 44.7188
Q48 40.375 41.7031 38.8125
Q48.8281 37.1562 52.7969 32.3125
Q56.7812 27.4844 56.7812 20.5156
Q56.7812 9.90625 50.3125 4.23438
Q43.8438 -1.42188 31.7812 -1.42188
Q19.7344 -1.42188 13.25 4.23438
Q6.78125 9.90625 6.78125 20.5156
Q6.78125 27.4844 10.7812 32.3125
Q14.7969 37.1562 21.9219 38.8125
M18.3125 54.3906
Q18.3125 48.7344 21.8438 45.5625
Q25.3906 42.3906 31.7812 42.3906
Q38.1406 42.3906 41.7188 45.5625
Q45.3125 48.7344 45.3125 54.3906
Q45.3125 60.0625 41.7188 63.2344
Q38.1406 66.4062 31.7812 66.4062
Q25.3906 66.4062 21.8438 63.2344
Q18.3125 60.0625 18.3125 54.3906" id="BitstreamVeraSans-Roman-38"/>
      </defs>
      <g transform="translate(218.971937864 162.66625)scale(0.12 -0.12)">
       <use xlink:href="#BitstreamVeraSans-Roman-38"/>
       <use x="63.623046875" xlink:href="#BitstreamVeraSans-Roman-30"/>
       <use x="127.24609375" xlink:href="#BitstreamVeraSans-Roman-30"/>
      </g>
     </g>
    </g>
    <g id="xtick_6">
     <g id="line2d_13">
      <defs>
       <path d="
M0 0
L0 -4" id="mb55b7847fd"/>
      </defs>
      <g>
       <use style="stroke:#000000;stroke-linecap:butt;stroke-width:0.5;" x="272.823323615" xlink:href="#mb55b7847fd" y="149.76"/>
      </g>
     </g>
     <g id="line2d_14">
      <defs>
       <path d="
M0 0
L0 4" id="m55befb0231"/>
      </defs>
      <g>
       <use style="stroke:#000000;stroke-linecap:butt;stroke-width:0.5;" x="272.823323615" xlink:href="#m55befb0231" y="18.72"/>
      </g>
     </g>
     <g id="text_6">
      <!-- 1000 -->
      <defs>
       <path d="
M12.4062 8.29688
L28.5156 8.29688
L28.5156 63.9219
L10.9844 60.4062
L10.9844 69.3906
L28.4219 72.9062
L38.2812 72.9062
L38.2812 8.29688
L54.3906 8.29688
L54.3906 0
L12.4062 0
z
" id="BitstreamVeraSans-Roman-31"/>
      </defs>
      <g transform="translate(258.610823615 162.66625)scale(0.12 -0.12)">
       <use xlink:href="#BitstreamVeraSans-Roman-31"/>
       <use x="63.623046875" xlink:href="#BitstreamVeraSans-Roman-30"/>
       <use x="127.24609375" xlink:href="#BitstreamVeraSans-Roman-30"/>
       <use x="190.869140625" xlink:href="#BitstreamVeraSans-Roman-30"/>
      </g>
     </g>
    </g>
    <g id="text_7">
     <!-- time -->
     <defs>
      <path d="
M56.2031 29.5938
L56.2031 25.2031
L14.8906 25.2031
Q15.4844 15.9219 20.4844 11.0625
Q25.4844 6.20312 34.4219 6.20312
Q39.5938 6.20312 44.4531 7.46875
Q49.3125 8.73438 54.1094 11.2812
L54.1094 2.78125
Q49.2656 0.734375 44.1875 -0.34375
Q39.1094 -1.42188 33.8906 -1.42188
Q20.7969 -1.42188 13.1562 6.1875
Q5.51562 13.8125 5.51562 26.8125
Q5.51562 40.2344 12.7656 48.1094
Q20.0156 56 32.3281 56
Q43.3594 56 49.7812 48.8906
Q56.2031 41.7969 56.2031 29.5938
M47.2188 32.2344
Q47.125 39.5938 43.0938 43.9844
Q39.0625 48.3906 32.4219 48.3906
Q24.9062 48.3906 20.3906 44.1406
Q15.875 39.8906 15.1875 32.1719
z
" id="BitstreamVeraSans-Roman-65"/>
      <path d="
M52 44.1875
Q55.375 50.25 60.0625 53.125
Q64.75 56 71.0938 56
Q79.6406 56 84.2812 50.0156
Q88.9219 44.0469 88.9219 33.0156
L88.9219 0
L79.8906 0
L79.8906 32.7188
Q79.8906 40.5781 77.0938 44.375
Q74.3125 48.1875 68.6094 48.1875
Q61.625 48.1875 57.5625 43.5469
Q53.5156 38.9219 53.5156 30.9062
L53.5156 0
L44.4844 0
L44.4844 32.7188
Q44.4844 40.625 41.7031 44.4062
Q38.9219 48.1875 33.1094 48.1875
Q26.2188 48.1875 22.1562 43.5312
Q18.1094 38.875 18.1094 30.9062
L18.1094 0
L9.07812 0
L9.07812 54.6875
L18.1094 54.6875
L18.1094 46.1875
Q21.1875 51.2188 25.4844 53.6094
Q29.7812 56 35.6875 56
Q41.6562 56 45.8281 52.9688
Q50 49.9531 52 44.1875" id="BitstreamVeraSans-Roman-6d"/>
      <path d="
M18.3125 70.2188
L18.3125 54.6875
L36.8125 54.6875
L36.8125 47.7031
L18.3125 47.7031
L18.3125 18.0156
Q18.3125 11.3281 20.1406 9.42188
Q21.9688 7.51562 27.5938 7.51562
L36.8125 7.51562
L36.8125 0
L27.5938 0
Q17.1875 0 13.2344 3.875
Q9.28125 7.76562 9.28125 18.0156
L9.28125 47.7031
L2.6875 47.7031
L2.6875 54.6875
L9.28125 54.6875
L9.28125 70.2188
z
" id="BitstreamVeraSans-Roman-74"/>
      <path d="
M9.42188 54.6875
L18.4062 54.6875
L18.4062 0
L9.42188 0
z

M9.42188 75.9844
L18.4062 75.9844
L18.4062 64.5938
L9.42188 64.5938
z
" id="BitstreamVeraSans-Roman-69"/>
     </defs>
     <g transform="translate(151.738452988 176.955)scale(0.12 -0.12)">
      <use xlink:href="#BitstreamVeraSans-Roman-74"/>
      <use x="39.208984375" xlink:href="#BitstreamVeraSans-Roman-69"/>
      <use x="66.9921875" xlink:href="#BitstreamVeraSans-Roman-6d"/>
      <use x="164.404296875" xlink:href="#BitstreamVeraSans-Roman-65"/>
     </g>
    </g>
   </g>
   <g id="matplotlib.axis_2">
    <g id="ytick_1">
     <g id="line2d_15">
      <defs>
       <path d="
M0 0
L4 0" id="mfd823e073d"/>
      </defs>
      <g>
       <use style="stroke:#000000;stroke-linecap:butt;stroke-width:0.5;" x="56.8023323615" xlink:href="#mfd823e073d" y="140.107733839"/>
      </g>
     </g>
     <g id="line2d_16">
      <defs>
       <path d="
M0 0
L-4 0" id="m03d7dc714b"/>
      </defs>
      <g>
       <use style="stroke:#000000;stroke-linecap:butt;stroke-width:0.5;" x="272.823323615" xlink:href="#m03d7dc714b" y="140.107733839"/>
      </g>
     </g>
     <g id="text_8">
      <!-- −10 -->
      <defs>
       <path d="
M10.5938 35.5
L73.1875 35.5
L73.1875 27.2031
L10.5938 27.2031
z
" id="BitstreamVeraSans-Roman-2212"/>
      </defs>
      <g transform="translate(29.5448323615 144.475546339)scale(0.12 -0.12)">
       <use xlink:href="#BitstreamVeraSans-Roman-2212"/>
       <use x="83.7890625" xlink:href="#BitstreamVeraSans-Roman-31"/>
       <use x="147.412109375" xlink:href="#BitstreamVeraSans-Roman-30"/>
      </g>
     </g>
    </g>
    <g id="ytick_2">
     <g id="line2d_17">
      <defs>
       <path d="
M0 0
L4 0" id="mfd823e073d"/>
      </defs>
      <g>
       <use style="stroke:#000000;stroke-linecap:butt;stroke-width:0.5;" x="56.8023323615" xlink:href="#mfd823e073d" y="111.830157458"/>
      </g>
     </g>
     <g id="line2d_18">
      <defs>
       <path d="
M0 0
L-4 0" id="m03d7dc714b"/>
      </defs>
      <g>
       <use style="stroke:#000000;stroke-linecap:butt;stroke-width:0.5;" x="272.823323615" xlink:href="#m03d7dc714b" y="111.830157458"/>
      </g>
     </g>
     <g id="text_9">
      <!-- −5 -->
      <defs>
       <path d="
M10.7969 72.9062
L49.5156 72.9062
L49.5156 64.5938
L19.8281 64.5938
L19.8281 46.7344
Q21.9688 47.4688 24.1094 47.8281
Q26.2656 48.1875 28.4219 48.1875
Q40.625 48.1875 47.75 41.5
Q54.8906 34.8125 54.8906 23.3906
Q54.8906 11.625 47.5625 5.09375
Q40.2344 -1.42188 26.9062 -1.42188
Q22.3125 -1.42188 17.5469 -0.640625
Q12.7969 0.140625 7.71875 1.70312
L7.71875 11.625
Q12.1094 9.23438 16.7969 8.0625
Q21.4844 6.89062 26.7031 6.89062
Q35.1562 6.89062 40.0781 11.3281
Q45.0156 15.7656 45.0156 23.3906
Q45.0156 31 40.0781 35.4375
Q35.1562 39.8906 26.7031 39.8906
Q22.75 39.8906 18.8125 39.0156
Q14.8906 38.1406 10.7969 36.2812
z
" id="BitstreamVeraSans-Roman-35"/>
      </defs>
      <g transform="translate(37.4310823615 116.119219958)scale(0.12 -0.12)">
       <use xlink:href="#BitstreamVeraSans-Roman-2212"/>
       <use x="83.7890625" xlink:href="#BitstreamVeraSans-Roman-35"/>
      </g>
     </g>
    </g>
    <g id="ytick_3">
     <g id="line2d_19">
      <defs>
       <path d="
M0 0
L4 0" id="mfd823e073d"/>
      </defs>
      <g>
       <use style="stroke:#000000;stroke-linecap:butt;stroke-width:0.5;" x="56.8023323615" xlink:href="#mfd823e073d" y="83.5525810775"/>
      </g>
     </g>
     <g id="line2d_20">
      <defs>
       <path d="
M0 0
L-4 0" id="m03d7dc714b"/>
      </defs>
      <g>
       <use style="stroke:#000000;stroke-linecap:butt;stroke-width:0.5;" x="272.823323615" xlink:href="#m03d7dc714b" y="83.5525810775"/>
      </g>
     </g>
     <g id="text_10">
      <!-- 0 -->
      <g transform="translate(46.7554573615 87.9203935775)scale(0.12 -0.12)">
       <use xlink:href="#BitstreamVeraSans-Roman-30"/>
      </g>
     </g>
    </g>
    <g id="ytick_4">
     <g id="line2d_21">
      <defs>
       <path d="
M0 0
L4 0" id="mfd823e073d"/>
      </defs>
      <g>
       <use style="stroke:#000000;stroke-linecap:butt;stroke-width:0.5;" x="56.8023323615" xlink:href="#mfd823e073d" y="55.2750046966"/>
      </g>
     </g>
     <g id="line2d_22">
      <defs>
       <path d="
M0 0
L-4 0" id="m03d7dc714b"/>
      </defs>
      <g>
       <use style="stroke:#000000;stroke-linecap:butt;stroke-width:0.5;" x="272.823323615" xlink:href="#m03d7dc714b" y="55.2750046966"/>
      </g>
     </g>
     <g id="text_11">
      <!-- 5 -->
      <g transform="translate(47.1417073615 59.5640671966)scale(0.12 -0.12)">
       <use xlink:href="#BitstreamVeraSans-Roman-35"/>
      </g>
     </g>
    </g>
    <g id="ytick_5">
     <g id="line2d_23">
      <defs>
       <path d="
M0 0
L4 0" id="mfd823e073d"/>
      </defs>
      <g>
       <use style="stroke:#000000;stroke-linecap:butt;stroke-width:0.5;" x="56.8023323615" xlink:href="#mfd823e073d" y="26.9974283157"/>
      </g>
     </g>
     <g id="line2d_24">
      <defs>
       <path d="
M0 0
L-4 0" id="m03d7dc714b"/>
      </defs>
      <g>
       <use style="stroke:#000000;stroke-linecap:butt;stroke-width:0.5;" x="272.823323615" xlink:href="#m03d7dc714b" y="26.9974283157"/>
      </g>
     </g>
     <g id="text_12">
      <!-- 10 -->
      <g transform="translate(39.6473323615 31.3652408157)scale(0.12 -0.12)">
       <use xlink:href="#BitstreamVeraSans-Roman-31"/>
       <use x="63.623046875" xlink:href="#BitstreamVeraSans-Roman-30"/>
      </g>
     </g>
    </g>
    <g id="text_13">
     <!-- $\log_{10}\{p_i(H|E)\}$ | Intensity -->
     <defs>
      <path id="BitstreamVeraSans-Roman-20"/>
      <path d="
M9.28125 0
L9.28125 3.51562
Q21.7812 3.51562 21.7812 6.6875
L21.7812 59.1875
Q16.6094 56.6875 8.6875 56.6875
L8.6875 60.2031
Q20.9531 60.2031 27.2031 66.6094
L28.6094 66.6094
Q28.9531 66.6094 29.2656 66.3281
Q29.5938 66.0625 29.5938 65.7188
L29.5938 6.6875
Q29.5938 3.51562 42.0938 3.51562
L42.0938 0
z
" id="Cmr10-31"/>
      <path d="
M25 -2.20312
Q12.75 -2.20312 8.32812 7.875
Q3.90625 17.9688 3.90625 31.8906
Q3.90625 40.5781 5.48438 48.2344
Q7.07812 55.9062 11.7812 61.25
Q16.5 66.6094 25 66.6094
Q31.5938 66.6094 35.7812 63.375
Q39.9844 60.1562 42.1875 55.0469
Q44.3906 49.9531 45.1875 44.1094
Q46 38.2812 46 31.8906
Q46 23.2969 44.4062 15.7969
Q42.8281 8.29688 38.1875 3.04688
Q33.5469 -2.20312 25 -2.20312
M25 0.390625
Q30.5625 0.390625 33.2969 6.09375
Q36.0312 11.8125 36.6719 18.75
Q37.3125 25.6875 37.3125 33.5
Q37.3125 41.0156 36.6719 47.3594
Q36.0312 53.7188 33.3125 58.8594
Q30.6094 64.0156 25 64.0156
Q19.3438 64.0156 16.6094 58.8281
Q13.875 53.6562 13.2344 47.3281
Q12.5938 41.0156 12.5938 33.5
Q12.5938 27.9375 12.8594 23
Q13.1406 18.0625 14.3125 12.8125
Q15.4844 7.5625 18.0938 3.96875
Q20.7031 0.390625 25 0.390625" id="Cmr10-30"/>
      <path d="
M21 76.4219
L21 -23.5781
L12.7031 -23.5781
L12.7031 76.4219
z
" id="BitstreamVeraSans-Roman-7c"/>
      <path d="
M11.0781 -115.094
L11.0781 -113.922
Q11.0781 -113.234 11.8125 -113.094
Q25.4844 -108.641 25.4844 -100.203
L25.4844 -71
Q25.4844 -61.0781 41.7031 -56
Q34.6719 -53.6094 30.0781 -50.1406
Q25.4844 -46.6875 25.4844 -40.9219
L25.4844 -11.7188
Q25.4844 -3.21875 11.8125 1.21875
Q11.0781 1.375 11.0781 2
L11.0781 3.21875
Q11.0781 4 12.0156 4
L13.1875 4
Q21.2344 2.04688 27.0156 -1.51562
Q32.8125 -5.07812 32.8125 -11.5312
L32.8125 -40.7188
Q32.8125 -45.7031 36.7812 -49.0938
Q40.7656 -52.4844 46.4844 -54.5938
Q47.125 -54.7812 47.125 -55.4219
L47.125 -56.5938
Q47.125 -56.8906 46.4844 -57.4219
Q43.2656 -58.5 40.0938 -60.375
Q36.9219 -62.25 34.8594 -65.0156
Q32.8125 -67.7812 32.8125 -71.1875
L32.8125 -100.391
Q32.8125 -104.891 29.7031 -108.031
Q26.6094 -111.188 22.4531 -112.922
Q18.3125 -114.656 13.1875 -115.922
L12.0156 -115.922
Q11.625 -115.922 11.3438 -115.641
Q11.0781 -115.375 11.0781 -115.094" id="Cmex10-aa"/>
      <path d="
M31 -24.8125
Q25.4375 -20.4062 21.4062 -14.7188
Q17.3906 -9.03125 14.8125 -2.57812
Q12.25 3.85938 10.9844 10.8906
Q9.71875 17.9219 9.71875 25
Q9.71875 32.1719 10.9844 39.2031
Q12.25 46.2344 14.8594 52.7344
Q17.4844 59.2344 21.5312 64.8906
Q25.5938 70.5625 31 74.8125
Q31 75 31.5 75
L32.4219 75
Q32.7188 75 32.9531 74.7344
Q33.2031 74.4688 33.2031 74.125
Q33.2031 73.6875 33.0156 73.4844
Q28.125 68.7031 24.875 63.2344
Q21.625 57.7656 19.6406 51.5781
Q17.6719 45.4062 16.7969 38.7812
Q15.9219 32.1719 15.9219 25
Q15.9219 -6.78125 32.9062 -23.2969
Q33.2031 -23.5781 33.2031 -24.125
Q33.2031 -24.3594 32.9375 -24.6719
Q32.6719 -25 32.4219 -25
L31.5 -25
Q31 -25 31 -24.8125" id="Cmr10-28"/>
      <path d="
M6.5 -25
Q5.60938 -25 5.60938 -24.125
Q5.60938 -23.6875 5.8125 -23.4844
Q22.9062 -6.78125 22.9062 25
Q22.9062 56.7812 6 73.2969
Q5.60938 73.5312 5.60938 74.125
Q5.60938 74.4688 5.875 74.7344
Q6.15625 75 6.5 75
L7.42188 75
Q7.71875 75 7.90625 74.8125
Q15.0938 69.1406 19.875 61.0312
Q24.6562 52.9375 26.875 43.75
Q29.1094 34.5781 29.1094 25
Q29.1094 17.9219 27.9062 11.0625
Q26.7031 4.20312 24.0938 -2.45312
Q21.4844 -9.125 17.4844 -14.7656
Q13.4844 -20.4062 7.90625 -24.8125
Q7.71875 -25 7.42188 -25
z
" id="Cmr10-29"/>
      <path d="
M25 -1.125
Q19 -1.125 13.8594 1.92188
Q8.73438 4.98438 5.75 10.1094
Q2.78125 15.2344 2.78125 21.2969
Q2.78125 25.875 4.42188 30.125
Q6.0625 34.375 9.10938 37.7188
Q12.1562 41.0625 16.2031 42.9375
Q20.2656 44.8281 25 44.8281
Q31.1562 44.8281 36.2031 41.5781
Q41.2656 38.3281 44.1875 32.875
Q47.125 27.4375 47.125 21.2969
Q47.125 15.2812 44.1406 10.125
Q41.1562 4.98438 36.0469 1.92188
Q30.9531 -1.125 25 -1.125
M25 1.8125
Q33.0156 1.8125 35.6875 7.60938
Q38.375 13.4219 38.375 22.4062
Q38.375 27.4375 37.8438 30.7344
Q37.3125 34.0312 35.5 36.7188
Q34.375 38.375 32.6406 39.625
Q30.9062 40.875 28.9688 41.5312
Q27.0469 42.1875 25 42.1875
Q21.875 42.1875 19.0625 40.7656
Q16.2656 39.3594 14.4062 36.7188
Q12.5469 33.8906 12.0312 30.4844
Q11.5312 27.0938 11.5312 22.4062
Q11.5312 16.7969 12.5 12.3281
Q13.4844 7.85938 16.4375 4.82812
Q19.3906 1.8125 25 1.8125" id="Cmr10-6f"/>
      <path d="
M11.9219 -23.1875
L11.9219 73.1875
Q11.9219 73.9688 12.5 74.4844
Q13.0938 75 13.9219 75
Q14.6562 75 15.2812 74.4844
Q15.9219 73.9688 15.9219 73.1875
L15.9219 -23.1875
Q15.9219 -23.9688 15.2812 -24.4844
Q14.6562 -25 13.9219 -25
Q13.0938 -25 12.5 -24.4844
Q11.9219 -23.9688 11.9219 -23.1875" id="Cmsy10-6a"/>
      <path d="
M3.07812 0
L3.07812 3.51562
Q6.5 3.51562 8.6875 4.04688
Q10.8906 4.59375 10.8906 6.6875
L10.8906 59.1875
Q10.8906 61.8594 10.0781 63.0625
Q9.28125 64.2656 7.76562 64.5312
Q6.25 64.7969 3.07812 64.7969
L3.07812 68.3125
L17.9219 69.3906
L17.9219 6.6875
Q17.9219 4.59375 20.1094 4.04688
Q22.3125 3.51562 25.6875 3.51562
L25.6875 0
z
" id="Cmr10-6c"/>
      <path d="
M54.8906 33.0156
L54.8906 0
L45.9062 0
L45.9062 32.7188
Q45.9062 40.4844 42.875 44.3281
Q39.8438 48.1875 33.7969 48.1875
Q26.5156 48.1875 22.3125 43.5469
Q18.1094 38.9219 18.1094 30.9062
L18.1094 0
L9.07812 0
L9.07812 54.6875
L18.1094 54.6875
L18.1094 46.1875
Q21.3438 51.125 25.7031 53.5625
Q30.0781 56 35.7969 56
Q45.2188 56 50.0469 50.1719
Q54.8906 44.3438 54.8906 33.0156" id="BitstreamVeraSans-Roman-6e"/>
      <path d="
M-2.48438 -19.3906
Q-3.42188 -19.3906 -3.42188 -18.1094
Q-3.07812 -15.9219 -2.09375 -15.9219
Q1.03125 -15.9219 2.26562 -15.3594
Q3.51562 -14.7969 4.20312 -12.5
L15.4844 32.5156
Q16.2188 34.375 16.2188 37.3125
Q16.2188 41.6094 13.2812 41.6094
Q10.1562 41.6094 8.64062 37.8594
Q7.125 34.125 5.71875 28.4219
Q5.71875 27.7812 4.89062 27.7812
L3.71875 27.7812
Q3.46875 27.7812 3.17188 28.1406
Q2.875 28.5156 2.875 28.8125
Q3.95312 33.1562 4.95312 36.1719
Q5.95312 39.2031 8.07812 41.6875
Q10.2031 44.1875 13.375 44.1875
Q16.7969 44.1875 19.375 42.25
Q21.9688 40.3281 22.7031 37.0156
Q25.4375 40.1875 28.75 42.1875
Q32.0781 44.1875 35.5938 44.1875
Q39.7969 44.1875 42.8906 41.9375
Q46 39.7031 47.5625 36.0625
Q49.125 32.4219 49.125 28.2188
Q49.125 21.7812 45.8281 14.8906
Q42.5312 8.01562 36.8906 3.4375
Q31.25 -1.125 24.8125 -1.125
Q21.875 -1.125 19.5 0.53125
Q17.1406 2.20312 15.8281 4.89062
L11.2812 -12.8906
Q11.0312 -14.3594 10.9844 -14.5938
Q10.9844 -15.9219 17.5781 -15.9219
Q18.6094 -15.9219 18.6094 -17.1875
Q18.2656 -18.5 18.0469 -18.9375
Q17.8281 -19.3906 16.8906 -19.3906
z

M24.9062 1.51562
Q28.375 1.51562 31.3438 4.375
Q34.3281 7.23438 36.1875 10.7969
Q37.5469 13.4844 38.7344 17.3594
Q39.9375 21.2344 40.8125 25.625
Q41.7031 30.0312 41.7031 32.625
Q41.7031 34.9062 41.0938 36.9062
Q40.4844 38.9219 39.0938 40.2656
Q37.7031 41.6094 35.4062 41.6094
Q31.7344 41.6094 28.4844 38.9844
Q25.25 36.375 22.6094 32.5156
L22.6094 32.1719
L17.0938 10.1094
Q17.7812 6.54688 19.7344 4.03125
Q21.6875 1.51562 24.9062 1.51562" id="Cmmi10-70"/>
      <path d="
M4.6875 0
Q3.71875 0 3.71875 1.3125
Q3.76562 1.5625 3.90625 2.17188
Q4.04688 2.78125 4.3125 3.14062
Q4.59375 3.51562 4.98438 3.51562
Q11.0781 3.51562 13.4844 4.20312
Q14.7969 4.64062 15.375 6.89062
L29.1094 61.8125
Q29.2969 62.7969 29.2969 63.1875
Q29.2969 64.2656 28.0781 64.4062
Q26.2188 64.7969 20.9062 64.7969
Q19.9219 64.7969 19.9219 66.1094
Q19.9688 66.3594 20.1094 66.9688
Q20.2656 67.5781 20.5312 67.9375
Q20.7969 68.3125 21.1875 68.3125
L75.3906 68.3125
Q76.4219 68.3125 76.4219 67
L74.0312 46.2969
Q74.0312 46.0469 73.6562 45.7188
Q73.2969 45.4062 73 45.4062
L72.125 45.4062
Q71.0938 45.4062 71.0938 46.6875
Q71.6875 51.5625 71.6875 53.9062
Q71.6875 57.9062 70.3125 60.125
Q68.9531 62.3594 66.6719 63.3281
Q64.4062 64.3125 61.6406 64.5469
Q58.8906 64.7969 54.3906 64.7969
L43.0156 64.7969
Q40.2812 64.7969 39.4062 64.3281
Q38.5312 63.875 37.7969 61.375
L31.7812 37.2031
L39.5938 37.2031
Q44.6719 37.2031 47.2656 37.9062
Q49.8594 38.625 51.3594 40.8594
Q52.875 43.1094 54.1094 48
Q54.2031 48.3438 54.4688 48.6094
Q54.7344 48.875 55.0781 48.875
L56 48.875
Q56.9844 48.875 56.9844 47.6094
L50.7812 22.9062
Q50.5938 22.0156 49.8125 22.0156
L48.875 22.0156
Q47.9062 22.0156 47.9062 23.2969
Q48.875 27.2969 48.875 29.2031
Q48.875 32.125 46.2344 32.9062
Q43.6094 33.6875 39.2031 33.6875
L30.9062 33.6875
L24.125 6.5
Q23.6875 5.28125 23.6875 4.29688
Q23.6875 3.51562 27.0938 3.51562
L39.2031 3.51562
Q46.4375 3.51562 50.9219 4.64062
Q55.4219 5.76562 58.375 8.21875
Q61.3281 10.6875 63.4688 14.5
Q65.625 18.3125 68.7031 25.5938
Q68.8906 26.2188 69.5781 26.2188
L70.5156 26.2188
Q70.9062 26.2188 71.1875 25.875
Q71.4844 25.5312 71.4844 25.0938
Q71.4844 24.9062 71.3906 24.7031
L61.0781 0.59375
Q60.8906 0 60.2969 0
z
" id="Cmmi10-45"/>
      <path d="
M32.1719 -5.07812
Q28.375 -14.8438 24.75 -17.8125
Q21.1406 -20.7969 15.0938 -20.7969
L7.90625 -20.7969
L7.90625 -13.2812
L13.1875 -13.2812
Q16.8906 -13.2812 18.9375 -11.5156
Q21 -9.76562 23.4844 -3.21875
L25.0938 0.875
L2.98438 54.6875
L12.5 54.6875
L29.5938 11.9219
L46.6875 54.6875
L56.2031 54.6875
z
" id="BitstreamVeraSans-Roman-79"/>
      <path d="
M7.8125 7.17188
Q7.8125 9.03125 8.59375 11.0781
L16.7031 32.625
Q18.0156 36.2812 18.0156 38.625
Q18.0156 41.6094 15.8281 41.6094
Q11.8594 41.6094 9.29688 37.5312
Q6.73438 33.4531 5.51562 28.4219
Q5.32812 27.7812 4.6875 27.7812
L3.51562 27.7812
Q2.6875 27.7812 2.6875 28.7188
L2.6875 29
Q4.29688 34.9688 7.60938 39.5781
Q10.9375 44.1875 16.0156 44.1875
Q19.5781 44.1875 22.0469 41.8438
Q24.5156 39.5 24.5156 35.8906
Q24.5156 34.0312 23.6875 31.9844
L15.5781 10.5
Q14.2031 7.17188 14.2031 4.5
Q14.2031 1.51562 16.5 1.51562
Q20.4062 1.51562 23.0156 5.6875
Q25.6406 9.85938 26.7031 14.7031
Q26.9062 15.2812 27.4844 15.2812
L28.7188 15.2812
Q29.1094 15.2812 29.3438 15.0156
Q29.5938 14.75 29.5938 14.4062
Q29.5938 14.3125 29.5 14.1094
Q28.125 8.45312 24.7344 3.65625
Q21.3438 -1.125 16.3125 -1.125
Q12.7969 -1.125 10.2969 1.29688
Q7.8125 3.71875 7.8125 7.17188
M19.0938 60.5938
Q19.0938 62.7031 20.8438 64.4062
Q22.6094 66.1094 24.7031 66.1094
Q26.4219 66.1094 27.5156 65.0625
Q28.6094 64.0156 28.6094 62.4062
Q28.6094 60.1562 26.8281 58.4688
Q25.0469 56.7812 22.9062 56.7812
Q21.2969 56.7812 20.1875 57.875
Q19.0938 58.9844 19.0938 60.5938" id="Cmmi10-69"/>
      <path d="
M25.4844 -100.391
L25.4844 -71.1875
Q25.4844 -67.7812 23.4844 -64.9844
Q21.4844 -62.2031 18.5 -60.4219
Q15.5312 -58.6406 11.8125 -57.4219
Q11.0781 -57.0312 11.0781 -56.5938
L11.0781 -55.4219
Q11.0781 -54.7344 11.8125 -54.5938
Q17.625 -52.5938 21.5469 -49.2188
Q25.4844 -45.8438 25.4844 -40.7188
L25.4844 -11.5312
Q25.4844 -5.07812 31.3125 -1.48438
Q37.1562 2.09375 45.125 4
L46.2969 4
Q46.5781 4 46.8438 3.78125
Q47.125 3.5625 47.125 3.21875
L47.125 2
Q47.125 1.42188 46.4844 1.21875
Q40.9219 -0.484375 36.8594 -3.625
Q32.8125 -6.78125 32.8125 -11.7188
L32.8125 -40.9219
Q32.8125 -46.7812 28.1875 -50.2188
Q23.5781 -53.6562 16.5 -56
Q23.3906 -58.0625 28.0938 -61.5469
Q32.8125 -65.0469 32.8125 -71
L32.8125 -100.203
Q32.8125 -103.562 34.8594 -106.094
Q36.9219 -108.641 39.9375 -110.297
Q42.9688 -111.969 46.4844 -113.094
Q47.125 -113.281 47.125 -113.922
L47.125 -115.094
Q47.125 -115.375 46.8438 -115.641
Q46.5781 -115.922 46.2969 -115.922
L45.125 -115.922
Q39.9844 -114.656 35.8125 -112.922
Q31.6406 -111.188 28.5625 -108.031
Q25.4844 -104.891 25.4844 -100.391" id="Cmex10-a9"/>
      <path d="
M2.78125 -7.8125
Q2.78125 -4.25 5.35938 -1.57812
Q7.95312 1.07812 11.5312 2.20312
Q9.51562 3.71875 8.46875 6
Q7.42188 8.29688 7.42188 10.8906
Q7.42188 15.5781 10.4062 19.1875
Q5.8125 23.6875 5.8125 29.5
Q5.8125 32.625 7.15625 35.3594
Q8.5 38.0938 10.8906 40.0938
Q13.2812 42.0938 16.2031 43.1406
Q19.1406 44.1875 22.2188 44.1875
Q28.1719 44.1875 32.9062 40.7188
Q34.9688 42.9219 37.7656 44.1094
Q40.5781 45.3125 43.6094 45.3125
Q45.75 45.3125 47.1094 43.7656
Q48.4844 42.2344 48.4844 40.0938
Q48.4844 38.875 47.5469 37.9375
Q46.625 37.0156 45.4062 37.0156
Q44.1406 37.0156 43.2031 37.9375
Q42.2812 38.875 42.2812 40.0938
Q42.2812 41.9375 43.5 42.6719
Q38.3281 42.6719 34.625 39.1094
Q36.4219 37.3125 37.5156 34.6875
Q38.625 32.0781 38.625 29.5
Q38.625 25.25 36.2812 21.8438
Q33.9375 18.4531 30.0938 16.5781
Q26.2656 14.7031 22.2188 14.7031
Q16.75 14.7031 12.2031 17.6719
Q10.7969 15.7188 10.7969 13.2812
Q10.7969 10.6406 12.5312 8.65625
Q14.2656 6.6875 16.8906 6.6875
L25.0938 6.6875
Q31.0625 6.6875 35.8438 5.60938
Q40.625 4.54688 43.875 1.3125
Q47.125 -1.90625 47.125 -7.8125
Q47.125 -12.2031 43.4062 -15.1094
Q39.7031 -18.0156 34.5469 -19.3125
Q29.3906 -20.6094 25 -20.6094
Q20.5625 -20.6094 15.375 -19.3125
Q10.2031 -18.0156 6.48438 -15.1094
Q2.78125 -12.2031 2.78125 -7.8125
M8.40625 -7.8125
Q8.40625 -11.1875 11.1406 -13.4531
Q13.875 -15.7188 17.7188 -16.8125
Q21.5781 -17.9219 25 -17.9219
Q28.375 -17.9219 32.2188 -16.8125
Q36.0781 -15.7188 38.7812 -13.4531
Q41.5 -11.1875 41.5 -7.8125
Q41.5 -2.59375 36.7188 -1.04688
Q31.9375 0.484375 25.0938 0.484375
L16.8906 0.484375
Q14.5938 0.484375 12.6719 -0.609375
Q10.75 -1.70312 9.57812 -3.6875
Q8.40625 -5.67188 8.40625 -7.8125
M22.2188 17.3906
Q30.7188 17.3906 30.7188 29.5
Q30.7188 34.7188 28.9062 38.1094
Q27.0938 41.5 22.2188 41.5
Q17.3281 41.5 15.5156 38.1094
Q13.7188 34.7188 13.7188 29.5
Q13.7188 26.1719 14.4062 23.4844
Q15.0938 20.7969 16.9375 19.0938
Q18.7969 17.3906 22.2188 17.3906" id="Cmr10-67"/>
      <path d="
M44.2812 53.0781
L44.2812 44.5781
Q40.4844 46.5312 36.375 47.5
Q32.2812 48.4844 27.875 48.4844
Q21.1875 48.4844 17.8438 46.4375
Q14.5 44.3906 14.5 40.2812
Q14.5 37.1562 16.8906 35.375
Q19.2812 33.5938 26.5156 31.9844
L29.5938 31.2969
Q39.1562 29.25 43.1875 25.5156
Q47.2188 21.7812 47.2188 15.0938
Q47.2188 7.46875 41.1875 3.01562
Q35.1562 -1.42188 24.6094 -1.42188
Q20.2188 -1.42188 15.4531 -0.5625
Q10.6875 0.296875 5.42188 2
L5.42188 11.2812
Q10.4062 8.6875 15.2344 7.39062
Q20.0625 6.10938 24.8125 6.10938
Q31.1562 6.10938 34.5625 8.28125
Q37.9844 10.4531 37.9844 14.4062
Q37.9844 18.0625 35.5156 20.0156
Q33.0625 21.9688 24.7031 23.7812
L21.5781 24.5156
Q13.2344 26.2656 9.51562 29.9062
Q5.8125 33.5469 5.8125 39.8906
Q5.8125 47.6094 11.2812 51.7969
Q16.75 56 26.8125 56
Q31.7812 56 36.1719 55.2656
Q40.5781 54.5469 44.2812 53.0781" id="BitstreamVeraSans-Roman-73"/>
      <path d="
M9.8125 72.9062
L19.6719 72.9062
L19.6719 0
L9.8125 0
z
" id="BitstreamVeraSans-Roman-49"/>
      <path d="
M4.6875 0
Q3.71875 0 3.71875 1.3125
Q3.76562 1.5625 3.90625 2.17188
Q4.04688 2.78125 4.3125 3.14062
Q4.59375 3.51562 4.98438 3.51562
Q11.0781 3.51562 13.4844 4.20312
Q14.7969 4.64062 15.375 6.89062
L29.1094 61.8125
Q29.2969 62.7969 29.2969 63.1875
Q29.2969 64.2656 28.0781 64.4062
Q26.2188 64.7969 20.9062 64.7969
Q19.9219 64.7969 19.9219 66.1094
Q20.2656 67.3906 20.4531 67.8438
Q20.6562 68.3125 21.5781 68.3125
L48.4844 68.3125
Q49.5156 68.3125 49.5156 67
Q49.4688 66.75 49.3125 66.1562
Q49.1719 65.5781 48.9219 65.1875
Q48.6875 64.7969 48.1875 64.7969
Q42.0938 64.7969 39.7031 64.1094
Q38.375 63.625 37.7969 61.375
L31.7812 37.3125
L61.8125 37.3125
L67.9219 61.8125
Q68.1094 62.7969 68.1094 63.1875
Q68.1094 64.2656 66.8906 64.4062
Q64.9844 64.7969 59.7188 64.7969
Q58.6875 64.7969 58.6875 66.1094
Q59.0312 67.3906 59.2188 67.8438
Q59.4219 68.3125 60.4062 68.3125
L87.3125 68.3125
Q88.2812 68.3125 88.2812 67
Q88.2344 66.75 88.0781 66.1406
Q87.9375 65.5312 87.6719 65.1562
Q87.4062 64.7969 87.0156 64.7969
Q80.9062 64.7969 78.5156 64.1094
Q77.2031 63.6719 76.6094 61.375
L62.8906 6.5
Q62.7031 5.51562 62.7031 5.07812
Q62.7031 4.04688 63.9219 3.90625
Q65.8281 3.51562 71.0938 3.51562
Q72.125 3.51562 72.125 2.20312
Q71.8281 1.03125 71.5312 0.515625
Q71.2344 0 70.4062 0
L43.5 0
Q42.4844 0 42.4844 1.3125
Q42.6719 2.04688 42.7656 2.39062
Q42.875 2.73438 43.1406 3.125
Q43.4062 3.51562 43.7969 3.51562
Q49.9062 3.51562 52.2969 4.20312
Q53.6094 4.64062 54.2031 6.89062
L60.8906 33.7969
L30.9062 33.7969
L24.125 6.5
Q23.875 5.28125 23.875 5.07812
Q23.875 4.04688 25.0938 3.90625
Q27 3.51562 32.3281 3.51562
Q33.2969 3.51562 33.2969 2.20312
Q32.9531 0.875 32.7344 0.4375
Q32.5156 0 31.5938 0
z
" id="Cmmi10-48"/>
     </defs>
     <g transform="translate(24.5448323615 155.88)rotate(-90.0)scale(0.12 -0.12)">
      <use transform="translate(0.0 28.7057291667)" xlink:href="#Cmr10-6c"/>
      <use transform="translate(27.685546875 28.7057291667)" xlink:href="#Cmr10-6f"/>
      <use transform="translate(77.685546875 28.7057291667)" xlink:href="#Cmr10-67"/>
      <use transform="translate(127.685546875 3.19635416667)scale(0.7)" xlink:href="#Cmr10-31"/>
      <use transform="translate(162.685546875 3.19635416667)scale(0.7)" xlink:href="#Cmr10-30"/>
      <use transform="translate(197.685546875 122.0)" xlink:href="#Cmex10-a9"/>
      <use transform="translate(255.986328125 28.7057291667)" xlink:href="#Cmmi10-70"/>
      <use transform="translate(306.279296875 3.19635416667)scale(0.7)" xlink:href="#Cmmi10-69"/>
      <use transform="translate(340.703125 28.7057291667)" xlink:href="#Cmr10-28"/>
      <use transform="translate(379.521484375 28.7057291667)" xlink:href="#Cmmi10-48"/>
      <use transform="translate(462.626953125 28.7057291667)" xlink:href="#Cmsy10-6a"/>
      <use transform="translate(490.3125 28.7057291667)" xlink:href="#Cmmi10-45"/>
      <use transform="translate(564.091796875 28.7057291667)" xlink:href="#Cmr10-29"/>
      <use transform="translate(602.91015625 122.0)" xlink:href="#Cmex10-aa"/>
      <use transform="translate(661.2109375 28.7057291667)" xlink:href="#BitstreamVeraSans-Roman-20"/>
      <use transform="translate(692.998046875 28.7057291667)" xlink:href="#BitstreamVeraSans-Roman-7c"/>
      <use transform="translate(726.689453125 28.7057291667)" xlink:href="#BitstreamVeraSans-Roman-20"/>
      <use transform="translate(758.4765625 28.7057291667)" xlink:href="#BitstreamVeraSans-Roman-49"/>
      <use transform="translate(787.96875 28.7057291667)" xlink:href="#BitstreamVeraSans-Roman-6e"/>
      <use transform="translate(851.34765625 28.7057291667)" xlink:href="#BitstreamVeraSans-Roman-74"/>
      <use transform="translate(890.556640625 28.7057291667)" xlink:href="#BitstreamVeraSans-Roman-65"/>
      <use transform="translate(952.080078125 28.7057291667)" xlink:href="#BitstreamVeraSans-Roman-6e"/>
      <use transform="translate(1015.45898438 28.7057291667)" xlink:href="#BitstreamVeraSans-Roman-73"/>
      <use transform="translate(1067.55859375 28.7057291667)" xlink:href="#BitstreamVeraSans-Roman-69"/>
      <use transform="translate(1095.34179688 28.7057291667)" xlink:href="#BitstreamVeraSans-Roman-74"/>
      <use transform="translate(1134.55078125 28.7057291667)" xlink:href="#BitstreamVeraSans-Roman-79"/>
     </g>
    </g>
   </g>
   <g id="patch_3">
    <path d="
M56.8023 18.72
L272.823 18.72" style="fill:none;stroke:#000000;"/>
   </g>
   <g id="patch_4">
    <path d="
M272.823 149.76
L272.823 18.72" style="fill:none;stroke:#000000;"/>
   </g>
   <g id="patch_5">
    <path d="
M56.8023 149.76
L272.823 149.76" style="fill:none;stroke:#000000;"/>
   </g>
   <g id="patch_6">
    <path d="
M56.8023 149.76
L56.8023 18.72" style="fill:none;stroke:#000000;"/>
   </g>
  </g>
 </g>
 <defs>
  <clipPath id="p40f4adbceb">
   <rect height="131.04" width="216.020991254" x="56.8023323615" y="18.72"/>
  </clipPath>
 </defs>
</svg>
