<?xml version="1.0" encoding="utf-8" standalone="no"?>
<!DOCTYPE svg PUBLIC "-//W3C//DTD SVG 1.1//EN"
  "http://www.w3.org/Graphics/SVG/1.1/DTD/svg11.dtd">
<!-- Created with matplotlib (http://matplotlib.sourceforge.net/) -->
<svg height="187pt" version="1.1" viewBox="0 0 295 187" width="295pt" xmlns="http://www.w3.org/2000/svg" xmlns:xlink="http://www.w3.org/1999/xlink">
 <defs>
  <style type="text/css">
*{stroke-linecap:square;stroke-linejoin:round;}
  </style>
 </defs>
 <g id="figure_1">
  <g id="patch_1">
   <path d="
M0 187.2
L295.2 187.2
L295.2 0
L0 0
z
" style="fill:#ffffff;"/>
  </g>
  <g id="axes_1">
   <g id="patch_2">
    <path d="
M44.28 149.76
L265.68 149.76
L265.68 18.72
L44.28 18.72
z
" style="fill:#ffffff;"/>
   </g>
   <g id="line2d_1">
    <path clip-path="url(#p6310fb15ea)" d="
M48.5377 124.362
L48.7508 98.0405
L48.9639 120.582
L49.177 114.713
L49.3901 118.166
L49.6032 116.768
L49.8163 128.722
L50.0294 112.236
L50.4556 120.882
L50.6687 117.379
L50.8818 109.723
L51.0949 133.401
L51.5211 107.985
L51.7342 116.075
L51.9473 110.447
L52.1604 127.488
L52.3735 107.07
L52.5865 133.002
L53.0127 112.391
L53.2258 130.508
L53.4389 94.751
L53.652 125.77
L53.8651 96.4922
L54.2913 115.741
L54.5044 119.126
L54.7175 103.757
L54.9306 134.524
L55.1437 105.685
L55.3568 110.75
L55.783 126.061
L55.9961 122.16
L56.2092 112.82
L56.4223 126.722
L56.8485 98.9987
L57.0616 101.104
L57.2747 115.58
L57.4878 114.808
L57.7009 123.814
L58.1271 95.4264
L58.3402 100.105
L58.5533 97.44
L58.9795 144.531
L59.4057 102.515
L59.6188 115.055
L59.8319 86.0927
L60.2581 120.496
L60.4712 125.949
L60.6843 102.261
L60.8974 121.48
L61.1105 115.853
L61.3236 116.015
L61.5367 114.62
L61.7498 129.777
L61.9628 116.982
L62.1759 130.175
L62.389 107.743
L62.6021 99.8376
L62.8152 99.8512
L63.0283 110.562
L63.2414 105.265
L63.4545 116.538
L63.6676 111.573
L63.8807 95.2143
L64.0938 98.9203
L64.3069 117.614
L64.52 120.796
L64.7331 118.418
L64.9462 113.224
L65.1593 130.612
L65.3724 111.551
L65.5855 124.401
L65.7986 119.79
L66.0117 121.09
L66.2248 129.477
L66.4379 106.702
L66.8641 119.402
L67.0772 118.811
L67.2903 124.662
L67.5034 116.564
L67.9296 128.342
L68.1427 111.259
L68.3558 126.93
L68.782 96.5825
L68.9951 118.032
L69.2082 90.4972
L69.4213 97.6376
L69.6344 121.953
L69.8475 118.957
L70.0606 135.07
L70.2737 110.885
L70.4868 115.703
L70.6999 114.241
L70.913 137.827
L71.126 106.139
L71.3391 126.587
L71.5522 122.156
L71.7653 138.162
L71.9784 98.8124
L72.1915 118.983
L72.4046 118.166
L72.6177 120.916
L72.8308 112.931
L73.0439 110.354
L73.257 105.75
L73.4701 125.83
L73.6832 115.683
L73.8963 93.8563
L74.1094 111.748
L74.3225 112.581
L74.5356 104.895
L74.7487 134.182
L74.9618 88.174
L75.1749 112.847
L75.388 116.755
L75.6011 117.993
L75.8142 141.35
L76.0273 93.2778
L76.2404 102.914
L76.4535 107.349
L76.8797 138.387
L77.3059 121.385
L77.519 129.98
L77.7321 112.319
L77.9452 112.076
L78.1583 98.44
L78.3714 133.686
L78.5845 128.133
L78.7976 126.576
L79.0107 132.009
L79.2238 105.905
L79.4369 123.247
L79.65 97.7315
L79.8631 118.77
L80.0762 120.368
L80.2893 130.441
L80.5023 122.244
L80.7154 136.356
L80.9285 111.347
L81.3547 115.491
L81.5678 123.961
L81.7809 106.811
L81.994 130.891
L82.2071 107.029
L82.6333 133.235
L82.8464 117.834
L83.2726 104.295
L83.4857 130.564
L83.6988 92.0519
L84.3381 120.576
L84.5512 108.951
L84.7643 113.741
L84.9774 129.983
L85.1905 113.044
L85.4036 130.508
L85.6167 119.247
L85.8298 118.488
L86.0429 135.233
L86.4691 107.428
L86.8953 107.025
L87.1084 104.138
L87.3215 104.834
L87.5346 129.443
L87.7477 113.527
L87.9608 112.024
L88.387 89.9902
L88.8132 125.757
L89.0263 103.838
L89.2394 125.631
L89.4525 112.135
L89.6656 122.55
L90.0917 99.5185
L90.3048 114.749
L90.5179 116.134
L90.731 114.58
L90.9441 110.416
L91.1572 126.555
L91.3703 102.437
L91.5834 110.92
L91.7965 111.318
L92.0096 130.233
L92.2227 125.097
L92.4358 104.565
L92.6489 147.24
L92.862 102.833
L93.0751 123.104
L93.2882 121.595
L93.5013 138.783
L93.7144 115.493
L93.9275 114.353
L94.1406 110.222
L94.3537 114.227
L94.5668 111.643
L94.993 119.224
L95.2061 108.586
L95.4192 90.6096
L95.6323 94.1805
L95.8454 127.298
L96.2716 99.7986
L96.4847 104.739
L96.6978 107.001
L96.9109 130.177
L97.3371 99.6441
L97.7633 121.76
L97.9764 108.889
L98.1895 132.321
L98.4026 95.3823
L98.6157 107.434
L98.8288 102.368
L99.0419 82.8283
L99.2549 75.2488
L99.6811 113.053
L100.107 92.3651
L100.32 103.251
L100.747 81.4065
L100.96 82.8599
L101.173 82.4247
L101.386 121.013
L101.812 82.0452
L102.025 90.3936
L102.238 110.677
L102.451 78.0431
L102.665 94.2903
L102.878 76.7665
L103.091 104.004
L103.517 82.0215
L103.73 103.293
L103.943 100.353
L104.156 88.7692
L104.369 99.6856
L104.582 101.622
L104.795 107.752
L105.009 80.7434
L105.222 84.3577
L105.435 79.7348
L105.648 98.1219
L105.861 81.0751
L106.074 91.1535
L106.287 89.9942
L106.5 118.778
L106.713 93.791
L106.926 87.7042
L107.14 121.365
L107.353 99.6015
L107.566 61.1595
L107.992 98.638
L108.205 69.7348
L108.418 87.1133
L108.631 93.3291
L108.844 94.233
L109.484 71.4882
L109.697 74.9456
L109.91 84.575
L110.123 114.649
L110.336 82.3325
L110.549 90.1976
L110.975 81.2106
L111.188 85.3035
L111.402 62.9626
L111.615 65.3276
L111.828 94.3047
L112.041 106.97
L112.467 74.4751
L112.68 88.9251
L112.893 85.359
L113.106 58.8662
L113.319 89.4546
L113.532 59.2688
L113.746 90.0233
L113.959 58.6092
L114.172 74.0302
L114.385 78.5426
L114.598 77.4635
L115.024 66.531
L115.237 65.1284
L115.45 69.5561
L115.663 60.4186
L115.877 74.5616
L116.09 74.9049
L116.303 63.5577
L116.516 78.035
L116.729 77.0441
L116.942 57.8528
L117.155 56.3067
L117.581 73.1756
L117.794 95.6367
L118.008 64.2035
L118.221 62.9621
L118.434 90.5024
L118.86 75.5822
L119.073 87.0832
L119.286 78.0945
L119.499 79.5834
L120.139 53.6384
L120.352 82.0479
L120.565 78.7782
L120.778 78.2918
L120.991 60.9062
L121.204 84.9655
L121.417 79.5515
L121.63 56.7608
L122.056 63.9515
L122.27 66.5461
L122.483 82.9448
L122.696 63.2705
L123.122 83.5509
L123.335 60.4669
L123.548 68.9017
L123.761 72.7474
L123.974 69.9918
L124.4 47.8897
L124.614 74.0627
L124.827 63.2629
L125.04 91.4665
L125.253 66.1203
L125.466 75.3465
L125.679 72.1034
L125.892 82.7263
L126.105 40.0437
L126.531 75.377
L126.745 64.8343
L126.958 72.5441
L127.171 58.9912
L127.384 60.3034
L127.597 63.9563
L127.81 52.4646
L128.023 66.9998
L128.449 56.5234
L128.662 81.2206
L128.876 68.6439
L129.089 68.913
L129.302 73.2892
L129.515 58.9447
L129.941 84.2154
L130.154 53.5532
L130.367 76.5659
L130.58 78.009
L130.793 56.7714
L131.007 61.1702
L131.22 70.6203
L131.433 40.6289
L131.859 72.6721
L132.072 59.762
L132.285 61.4415
L132.498 41.7129
L132.924 80.412
L133.137 88.2525
L133.351 62.0562
L133.564 67.0108
L133.777 68.2324
L133.99 52.2943
L134.203 75.2343
L134.629 55.4118
L134.842 62.7204
L135.055 51.6201
L135.268 55.9568
L135.482 71.3842
L135.695 63.0663
L135.908 69.7008
L136.121 83.2237
L136.334 80.3839
L136.547 60.6204
L136.76 62.9198
L136.973 82.1841
L137.399 46.6994
L137.613 84.5455
L137.826 59.2962
L138.039 69.8562
L138.252 53.9042
L138.465 74.029
L138.678 76.7763
L138.891 62.7691
L139.104 59.871
L139.317 50.3843
L139.53 69.8979
L139.744 44.1318
L140.17 62.2156
L140.383 51.0532
L140.596 61.884
L141.022 59.125
L141.235 51.9664
L141.448 62.1458
L141.661 65.8912
L141.874 31.916
L142.088 67.3611
L142.301 66.9669
L142.514 31.2911
L142.727 63.4852
L142.94 50.1638
L143.153 75.8426
L143.366 53.2373
L143.579 67.7869
L143.792 64.5168
L144.005 72.2601
L144.219 59.6141
L144.432 66.3944
L144.645 59.8778
L144.858 70.5811
L145.071 58.1279
L145.284 55.9558
L145.497 64.5217
L145.923 42.8736
L146.136 55.7271
L146.563 68.4778
L146.776 78.3508
L146.989 76.1125
L147.202 60.4035
L147.415 70.8215
L147.628 52.6638
L147.841 54.6298
L148.054 76.0752
L148.267 76.0067
L148.481 76.5166
L148.694 54.2859
L148.907 66.9191
L149.12 54.1388
L149.333 61.2951
L149.546 60.7779
L149.759 52.5658
L149.972 53.0751
L150.398 88.1872
L150.611 52.5286
L150.825 73.6353
L151.038 47.4438
L151.251 56.0786
L151.464 73.4694
L151.677 63.5046
L151.89 59.1138
L152.316 57.7953
L152.529 64.2639
L152.742 46.6771
L152.956 82.2907
L153.169 44.4263
L153.382 49.8521
L153.595 58.8843
L153.808 74.5967
L154.021 53.0628
L154.234 42.9902
L154.66 60.2809
L154.873 72.9265
L155.087 56.9748
L155.3 60.2981
L155.513 84.4409
L155.726 56.1549
L155.939 84.5435
L156.152 86.0705
L156.365 52.832
L156.578 59.4943
L156.791 52.8179
L157.004 82.7974
L157.431 62.4716
L157.644 59.1275
L157.857 43.3662
L158.07 39.8624
L158.283 89.6292
L158.496 66.9623
L158.922 58.919
L159.135 65.0587
L159.349 61.7709
L159.562 36.7568
L159.775 86.8278
L159.988 37.0258
L160.201 72.6975
L160.414 53.5955
L160.627 69.4099
L160.84 45.0247
L161.053 42.6977
L161.266 71.8391
L161.479 57.0906
L161.693 62.0928
L161.906 49.2399
L162.119 69.6839
L162.332 43.926
L162.545 87.8765
L162.758 66.4372
L162.971 73.1099
L163.184 50.6246
L163.397 47.5127
L163.61 52.2156
L163.824 84.5916
L164.037 70.9005
L164.25 83.7113
L164.676 62.5298
L164.889 67.5673
L165.102 57.7591
L165.315 67.4051
L165.528 43.5625
L165.955 67.5143
L166.168 51.5719
L166.381 82.9548
L166.594 59.0147
L166.807 63.8863
L167.02 38.4925
L167.233 55.1484
L167.446 48.2915
L167.659 67.1546
L167.872 63.3579
L168.086 63.7976
L168.299 57.9849
L168.512 59.0561
L168.725 83.0876
L168.938 38.931
L169.151 49.6878
L169.364 71.0552
L169.79 55.1698
L170.003 85.0138
L170.43 51.8398
L170.643 78.8982
L171.069 37.8717
L171.282 65.3995
L171.708 83.9216
L171.921 68.3013
L172.134 64.935
L172.347 32.4136
L172.774 56.6715
L172.987 50.6305
L173.2 72.2219
L173.413 69.7851
L173.626 63.5859
L173.839 42.4469
L174.052 59.3687
L174.265 59.627
L174.478 64.3884
L174.905 69.704
L175.118 57.5117
L175.331 69.4013
L175.757 35.9506
L175.97 58.9132
L176.183 65.2778
L176.396 64.702
L176.609 55.5696
L176.823 57.7236
L177.036 68.5556
L177.249 50.7458
L177.462 75.2897
L177.675 72.8981
L177.888 83.1092
L178.101 74.4271
L178.527 35.3553
L178.74 41.9784
L178.953 30.9328
L179.167 75.3057
L179.38 79.6939
L179.593 54.8628
L179.806 62.8132
L180.019 66.0571
L180.232 56.6283
L180.445 53.4523
L180.658 52.7573
L180.871 61.5539
L181.084 59.6584
L181.298 64.3684
L181.511 64.2404
L181.724 36.6606
L181.937 67.3973
L182.15 59.217
L182.363 80.4988
L182.576 56.8584
L182.789 54.6125
L183.002 58.7073
L183.215 51.4281
L183.429 54.4529
L183.855 67.9283
L184.068 52.7207
L184.494 79.9459
L184.707 68.3952
L184.92 65.2619
L185.133 72.1097
L185.346 47.7406
L185.986 55.5647
L186.199 45.9112
L186.412 47.109
L186.625 44.2404
L187.051 67.4671
L187.477 48.2709
L187.69 51.8299
L187.904 65.2589
L188.117 35.7231
L188.33 73.4568
L188.543 53.8968
L188.756 61.8964
L188.969 60.4059
L189.182 51.7265
L189.395 52.101
L189.608 81.6621
L189.821 61.2806
L190.248 47.7225
L190.461 76.6756
L190.674 56.134
L190.887 61.2809
L191.1 72.4528
L191.313 63.1838
L191.526 61.8317
L191.739 53.4794
L191.952 67.6987
L192.166 50.3787
L192.592 82.449
L192.805 76.1296
L193.018 48.939
L193.231 71.7875
L193.444 71.3197
L193.87 54.9856
L194.083 65.3056
L194.297 62.6465
L194.51 42.8503
L194.723 62.2841
L195.149 70.5148
L195.362 86.9752
L195.575 48.785
L195.788 41.4015
L196.001 72.1755
L196.214 59.2986
L196.428 58.6746
L196.641 63.5019
L196.854 60.4524
L197.067 71.6387
L197.28 64.0461
L197.493 61.1254
L197.706 39.55
L197.919 38.0597
L198.132 68.2514
L198.558 45.4131
L198.985 61.1857
L199.198 62.5146
L199.411 52.4384
L199.837 75.2741
L200.05 46.2151
L200.263 58.4091
L200.476 51.6452
L200.689 81.3473
L201.116 42.5062
L201.329 55.3027
L201.542 46.8664
L201.755 59.9694
L201.968 80.9978
L202.181 55.57
L202.394 63.6315
L202.607 77.3282
L202.82 49.5489
L203.034 54.0025
L203.247 37.5349
L203.46 61.8854
L203.673 51.3266
L203.886 78.208
L204.312 49.7407
L204.525 50.8011
L204.738 52.7446
L204.951 72.1849
L205.165 50.5711
L205.378 59.1692
L205.591 43.9251
L205.804 47.4858
L206.017 67.2692
L206.23 49.128
L206.443 67.1816
L206.656 56.8294
L206.869 71.274
L207.082 57.4225
L207.295 67.1981
L207.509 70.5069
L207.722 65.0289
L207.935 65.9552
L208.148 45.5486
L208.361 52.055
L208.574 44.6508
L208.787 71.5645
L209 58.3202
L209.213 73.0422
L209.426 66.9548
L209.64 46.4244
L210.066 69.8234
L210.279 69.3039
L210.492 35.4742
L211.344 63.1751
L211.557 61.652
L211.771 51.7385
L211.984 52.1277
L212.197 54.4521
L212.41 51.9524
L212.623 54.747
L212.836 51.958
L213.049 54.0155
L213.262 41.7546
L213.475 69.3231
L213.688 78.5667
L213.902 60.3739
L214.115 57.7716
L214.328 56.9347
L214.541 51.2177
L214.754 57.6868
L214.967 69.9989
L215.18 55.2218
L215.393 67.4985
L215.606 53.6042
L215.819 57.0931
L216.032 88.0362
L216.246 66.9719
L216.459 61.0691
L216.885 58.3041
L217.098 48.3151
L217.311 60.9338
L217.524 65.2155
L217.737 46.3147
L217.95 66.3903
L218.163 63.3547
L218.377 62.6025
L218.59 45.49
L218.803 51.0165
L219.016 53.444
L219.229 45.6957
L219.442 47.1712
L219.655 63.0456
L219.868 66.2336
L220.081 63.317
L220.294 45.533
L220.508 70.7032
L220.721 53.1686
L220.934 52.0122
L221.147 44.3685
L221.36 63.6715
L221.573 42.358
L221.786 54.6032
L221.999 21.24
L222.425 62.4286
L222.852 52.8355
L223.065 53.4283
L223.278 60.4241
L223.491 39.8541
L223.917 62.2666
L224.13 57.6505
L224.343 69.6249
L224.556 64.394
L224.77 48.1059
L224.983 79.2795
L225.196 72.3777
L225.409 53.1797
L225.622 72.9335
L226.048 80.3091
L226.261 69.8984
L226.474 72.0949
L226.687 60.587
L226.9 71.5872
L227.114 56.0992
L227.327 51.8051
L227.54 74.0246
L227.966 54.0804
L228.179 44.4176
L228.605 71.1746
L229.031 45.1333
L229.245 65.6768
L229.458 42.5673
L229.671 62.9927
L229.884 49.1139
L230.097 70.7141
L230.31 57.9933
L230.523 52.4971
L230.736 63.9214
L230.949 66.2068
L231.162 54.9758
L231.376 55.3425
L231.589 72.2082
L231.802 35.4362
L232.015 66.5612
L232.228 72.7689
L232.441 55.6173
L232.654 60.9097
L233.293 48.6643
L233.507 56.6149
L233.72 51.4677
L233.933 71.8779
L234.146 43.2865
L234.359 72.9848
L234.572 50.2339
L234.785 56.8736
L234.998 45.6553
L235.211 50.0217
L235.424 61.8508
L235.637 56.6853
L235.851 54.4952
L236.064 60.6344
L236.277 52.6984
L236.49 34.1198
L236.703 59.9367
L236.916 48.9629
L237.129 49.0689
L237.342 70.9204
L237.555 49.736
L237.982 79.7792
L238.195 52.0476
L238.408 74.5478
L238.621 65.0079
L238.834 62.9627
L239.047 57.3921
L239.26 55.2728
L239.473 60.3192
L239.686 54.0365
L239.899 53.0088
L240.113 58.0098
L240.326 48.0479
L240.539 55.6527
L240.752 55.7832
L240.965 57.4737
L241.178 72.5951
L241.391 72.0937
L241.604 56.4091
L241.817 62.259
L242.03 32.9108
L242.244 59.4637
L242.457 67.5444
L242.67 53.143
L242.883 82.9578
L243.309 45.0345
L243.522 71.9182
L243.735 73.7164
L243.948 66.7319
L244.161 71.3662
L244.374 83.0081
L244.588 35.4696
L244.801 62.1151
L245.014 47.9335
L245.44 88.0175
L245.653 49.9785
L245.866 54.9346
L246.079 52.9003
L246.292 73.2981
L246.505 54.6405
L246.719 48.1768
L246.932 50.2238
L247.358 63.9006
L247.571 77.7484
L247.784 53.4573
L247.997 43.3281
L248.21 64.506
L248.423 48.5844
L248.636 42.7356
L248.85 63.4567
L249.063 50.7463
L249.276 68.1374
L249.489 62.823
L249.702 64.7837
L249.915 71.2791
L250.128 56.9768
L250.341 55.607
L250.554 60.097
L250.767 69.2316
L250.981 67.742
L251.407 58.6929
L251.62 57.4381
L251.833 60.9622
L252.046 55.5812
L252.472 72.2541
L252.685 36.3446
L252.898 67.6411
L253.111 69.9654
L253.325 43.2675
L253.538 53.1489
L253.751 55.9746
L253.964 56.0623
L254.177 48.5319
L254.39 49.1466
L254.603 55.8915
L254.816 51.2801
L255.029 55.7166
L255.456 78.9922
L255.669 64.3897
L255.882 41.3648
L256.095 65.1076
L256.308 51.7751
L256.521 51.1381
L256.734 52.5164
L256.947 58.5157
L257.16 54.5282
L257.373 41.3884
L257.587 62.6839
L257.8 72.7521
L258.013 67.5441
L258.226 73.1541
L258.439 39.5283
L258.652 44.2393
L258.865 57.6606
L259.078 60.4143
L259.291 73.2782
L259.504 38.1913
L259.718 52.595
L259.931 55.5795
L260.144 63.2346
L260.357 54.4513
L260.57 61.152
L260.783 48.1372
L260.996 53.412
L261.209 49.4927
L261.422 48.9275
L261.422 48.9275" style="fill:none;stroke:#0000ff;"/>
   </g>
   <g id="matplotlib.axis_1">
    <g id="xtick_1">
     <g id="line2d_2">
      <defs>
       <path d="
M0 0
L0 -4" id="mb55b7847fd"/>
      </defs>
      <g>
       <use style="stroke:#000000;stroke-linecap:butt;stroke-width:0.5;" x="48.5376923077" xlink:href="#mb55b7847fd" y="149.76"/>
      </g>
     </g>
     <g id="line2d_3">
      <defs>
       <path d="
M0 0
L0 4" id="m55befb0231"/>
      </defs>
      <g>
       <use style="stroke:#000000;stroke-linecap:butt;stroke-width:0.5;" x="48.5376923077" xlink:href="#m55befb0231" y="18.72"/>
      </g>
     </g>
     <g id="text_1">
      <!-- 0 -->
      <defs>
       <path d="
M31.7812 66.4062
Q24.1719 66.4062 20.3281 58.9062
Q16.5 51.4219 16.5 36.375
Q16.5 21.3906 20.3281 13.8906
Q24.1719 6.39062 31.7812 6.39062
Q39.4531 6.39062 43.2812 13.8906
Q47.125 21.3906 47.125 36.375
Q47.125 51.4219 43.2812 58.9062
Q39.4531 66.4062 31.7812 66.4062
M31.7812 74.2188
Q44.0469 74.2188 50.5156 64.5156
Q56.9844 54.8281 56.9844 36.375
Q56.9844 17.9688 50.5156 8.26562
Q44.0469 -1.42188 31.7812 -1.42188
Q19.5312 -1.42188 13.0625 8.26562
Q6.59375 17.9688 6.59375 36.375
Q6.59375 54.8281 13.0625 64.5156
Q19.5312 74.2188 31.7812 74.2188" id="BitstreamVeraSans-Roman-30"/>
      </defs>
      <g transform="translate(45.5142548077 162.66625)scale(0.12 -0.12)">
       <use xlink:href="#BitstreamVeraSans-Roman-30"/>
      </g>
     </g>
    </g>
    <g id="xtick_2">
     <g id="line2d_4">
      <defs>
       <path d="
M0 0
L0 -4" id="mb55b7847fd"/>
      </defs>
      <g>
       <use style="stroke:#000000;stroke-linecap:butt;stroke-width:0.5;" x="91.1572349272" xlink:href="#mb55b7847fd" y="149.76"/>
      </g>
     </g>
     <g id="line2d_5">
      <defs>
       <path d="
M0 0
L0 4" id="m55befb0231"/>
      </defs>
      <g>
       <use style="stroke:#000000;stroke-linecap:butt;stroke-width:0.5;" x="91.1572349272" xlink:href="#m55befb0231" y="18.72"/>
      </g>
     </g>
     <g id="text_2">
      <!-- 200 -->
      <defs>
       <path d="
M19.1875 8.29688
L53.6094 8.29688
L53.6094 0
L7.32812 0
L7.32812 8.29688
Q12.9375 14.1094 22.625 23.8906
Q32.3281 33.6875 34.8125 36.5312
Q39.5469 41.8438 41.4219 45.5312
Q43.3125 49.2188 43.3125 52.7812
Q43.3125 58.5938 39.2344 62.25
Q35.1562 65.9219 28.6094 65.9219
Q23.9688 65.9219 18.8125 64.3125
Q13.6719 62.7031 7.8125 59.4219
L7.8125 69.3906
Q13.7656 71.7812 18.9375 73
Q24.125 74.2188 28.4219 74.2188
Q39.75 74.2188 46.4844 68.5469
Q53.2188 62.8906 53.2188 53.4219
Q53.2188 48.9219 51.5312 44.8906
Q49.8594 40.875 45.4062 35.4062
Q44.1875 33.9844 37.6406 27.2188
Q31.1094 20.4531 19.1875 8.29688" id="BitstreamVeraSans-Roman-32"/>
      </defs>
      <g transform="translate(80.5428599272 162.66625)scale(0.12 -0.12)">
       <use xlink:href="#BitstreamVeraSans-Roman-32"/>
       <use x="63.623046875" xlink:href="#BitstreamVeraSans-Roman-30"/>
       <use x="127.24609375" xlink:href="#BitstreamVeraSans-Roman-30"/>
      </g>
     </g>
    </g>
    <g id="xtick_3">
     <g id="line2d_6">
      <defs>
       <path d="
M0 0
L0 -4" id="mb55b7847fd"/>
      </defs>
      <g>
       <use style="stroke:#000000;stroke-linecap:butt;stroke-width:0.5;" x="133.776777547" xlink:href="#mb55b7847fd" y="149.76"/>
      </g>
     </g>
     <g id="line2d_7">
      <defs>
       <path d="
M0 0
L0 4" id="m55befb0231"/>
      </defs>
      <g>
       <use style="stroke:#000000;stroke-linecap:butt;stroke-width:0.5;" x="133.776777547" xlink:href="#m55befb0231" y="18.72"/>
      </g>
     </g>
     <g id="text_3">
      <!-- 400 -->
      <defs>
       <path d="
M37.7969 64.3125
L12.8906 25.3906
L37.7969 25.3906
z

M35.2031 72.9062
L47.6094 72.9062
L47.6094 25.3906
L58.0156 25.3906
L58.0156 17.1875
L47.6094 17.1875
L47.6094 0
L37.7969 0
L37.7969 17.1875
L4.89062 17.1875
L4.89062 26.7031
z
" id="BitstreamVeraSans-Roman-34"/>
      </defs>
      <g transform="translate(123.016152547 162.66625)scale(0.12 -0.12)">
       <use xlink:href="#BitstreamVeraSans-Roman-34"/>
       <use x="63.623046875" xlink:href="#BitstreamVeraSans-Roman-30"/>
       <use x="127.24609375" xlink:href="#BitstreamVeraSans-Roman-30"/>
      </g>
     </g>
    </g>
    <g id="xtick_4">
     <g id="line2d_8">
      <defs>
       <path d="
M0 0
L0 -4" id="mb55b7847fd"/>
      </defs>
      <g>
       <use style="stroke:#000000;stroke-linecap:butt;stroke-width:0.5;" x="176.396320166" xlink:href="#mb55b7847fd" y="149.76"/>
      </g>
     </g>
     <g id="line2d_9">
      <defs>
       <path d="
M0 0
L0 4" id="m55befb0231"/>
      </defs>
      <g>
       <use style="stroke:#000000;stroke-linecap:butt;stroke-width:0.5;" x="176.396320166" xlink:href="#m55befb0231" y="18.72"/>
      </g>
     </g>
     <g id="text_4">
      <!-- 600 -->
      <defs>
       <path d="
M33.0156 40.375
Q26.375 40.375 22.4844 35.8281
Q18.6094 31.2969 18.6094 23.3906
Q18.6094 15.5312 22.4844 10.9531
Q26.375 6.39062 33.0156 6.39062
Q39.6562 6.39062 43.5312 10.9531
Q47.4062 15.5312 47.4062 23.3906
Q47.4062 31.2969 43.5312 35.8281
Q39.6562 40.375 33.0156 40.375
M52.5938 71.2969
L52.5938 62.3125
Q48.875 64.0625 45.0938 64.9844
Q41.3125 65.9219 37.5938 65.9219
Q27.8281 65.9219 22.6719 59.3281
Q17.5312 52.7344 16.7969 39.4062
Q19.6719 43.6562 24.0156 45.9219
Q28.375 48.1875 33.5938 48.1875
Q44.5781 48.1875 50.9531 41.5156
Q57.3281 34.8594 57.3281 23.3906
Q57.3281 12.1562 50.6875 5.35938
Q44.0469 -1.42188 33.0156 -1.42188
Q20.3594 -1.42188 13.6719 8.26562
Q6.98438 17.9688 6.98438 36.375
Q6.98438 53.6562 15.1875 63.9375
Q23.3906 74.2188 37.2031 74.2188
Q40.9219 74.2188 44.7031 73.4844
Q48.4844 72.75 52.5938 71.2969" id="BitstreamVeraSans-Roman-36"/>
      </defs>
      <g transform="translate(165.761320166 162.66625)scale(0.12 -0.12)">
       <use xlink:href="#BitstreamVeraSans-Roman-36"/>
       <use x="63.623046875" xlink:href="#BitstreamVeraSans-Roman-30"/>
       <use x="127.24609375" xlink:href="#BitstreamVeraSans-Roman-30"/>
      </g>
     </g>
    </g>
    <g id="xtick_5">
     <g id="line2d_10">
      <defs>
       <path d="
M0 0
L0 -4" id="mb55b7847fd"/>
      </defs>
      <g>
       <use style="stroke:#000000;stroke-linecap:butt;stroke-width:0.5;" x="219.015862786" xlink:href="#mb55b7847fd" y="149.76"/>
      </g>
     </g>
     <g id="line2d_11">
      <defs>
       <path d="
M0 0
L0 4" id="m55befb0231"/>
      </defs>
      <g>
       <use style="stroke:#000000;stroke-linecap:butt;stroke-width:0.5;" x="219.015862786" xlink:href="#m55befb0231" y="18.72"/>
      </g>
     </g>
     <g id="text_5">
      <!-- 800 -->
      <defs>
       <path d="
M31.7812 34.625
Q24.75 34.625 20.7188 30.8594
Q16.7031 27.0938 16.7031 20.5156
Q16.7031 13.9219 20.7188 10.1562
Q24.75 6.39062 31.7812 6.39062
Q38.8125 6.39062 42.8594 10.1719
Q46.9219 13.9688 46.9219 20.5156
Q46.9219 27.0938 42.8906 30.8594
Q38.875 34.625 31.7812 34.625
M21.9219 38.8125
Q15.5781 40.375 12.0312 44.7188
Q8.5 49.0781 8.5 55.3281
Q8.5 64.0625 14.7188 69.1406
Q20.9531 74.2188 31.7812 74.2188
Q42.6719 74.2188 48.875 69.1406
Q55.0781 64.0625 55.0781 55.3281
Q55.0781 49.0781 51.5312 44.7188
Q48 40.375 41.7031 38.8125
Q48.8281 37.1562 52.7969 32.3125
Q56.7812 27.4844 56.7812 20.5156
Q56.7812 9.90625 50.3125 4.23438
Q43.8438 -1.42188 31.7812 -1.42188
Q19.7344 -1.42188 13.25 4.23438
Q6.78125 9.90625 6.78125 20.5156
Q6.78125 27.4844 10.7812 32.3125
Q14.7969 37.1562 21.9219 38.8125
M18.3125 54.3906
Q18.3125 48.7344 21.8438 45.5625
Q25.3906 42.3906 31.7812 42.3906
Q38.1406 42.3906 41.7188 45.5625
Q45.3125 48.7344 45.3125 54.3906
Q45.3125 60.0625 41.7188 63.2344
Q38.1406 66.4062 31.7812 66.4062
Q25.3906 66.4062 21.8438 63.2344
Q18.3125 60.0625 18.3125 54.3906" id="BitstreamVeraSans-Roman-38"/>
      </defs>
      <g transform="translate(208.368675286 162.66625)scale(0.12 -0.12)">
       <use xlink:href="#BitstreamVeraSans-Roman-38"/>
       <use x="63.623046875" xlink:href="#BitstreamVeraSans-Roman-30"/>
       <use x="127.24609375" xlink:href="#BitstreamVeraSans-Roman-30"/>
      </g>
     </g>
    </g>
    <g id="xtick_6">
     <g id="line2d_12">
      <defs>
       <path d="
M0 0
L0 -4" id="mb55b7847fd"/>
      </defs>
      <g>
       <use style="stroke:#000000;stroke-linecap:butt;stroke-width:0.5;" x="261.635405405" xlink:href="#mb55b7847fd" y="149.76"/>
      </g>
     </g>
     <g id="line2d_13">
      <defs>
       <path d="
M0 0
L0 4" id="m55befb0231"/>
      </defs>
      <g>
       <use style="stroke:#000000;stroke-linecap:butt;stroke-width:0.5;" x="261.635405405" xlink:href="#m55befb0231" y="18.72"/>
      </g>
     </g>
     <g id="text_6">
      <!-- 1000 -->
      <defs>
       <path d="
M12.4062 8.29688
L28.5156 8.29688
L28.5156 63.9219
L10.9844 60.4062
L10.9844 69.3906
L28.4219 72.9062
L38.2812 72.9062
L38.2812 8.29688
L54.3906 8.29688
L54.3906 0
L12.4062 0
z
" id="BitstreamVeraSans-Roman-31"/>
      </defs>
      <g transform="translate(247.422905405 162.66625)scale(0.12 -0.12)">
       <use xlink:href="#BitstreamVeraSans-Roman-31"/>
       <use x="63.623046875" xlink:href="#BitstreamVeraSans-Roman-30"/>
       <use x="127.24609375" xlink:href="#BitstreamVeraSans-Roman-30"/>
       <use x="190.869140625" xlink:href="#BitstreamVeraSans-Roman-30"/>
      </g>
     </g>
    </g>
    <g id="text_7">
     <!-- time -->
     <defs>
      <path d="
M56.2031 29.5938
L56.2031 25.2031
L14.8906 25.2031
Q15.4844 15.9219 20.4844 11.0625
Q25.4844 6.20312 34.4219 6.20312
Q39.5938 6.20312 44.4531 7.46875
Q49.3125 8.73438 54.1094 11.2812
L54.1094 2.78125
Q49.2656 0.734375 44.1875 -0.34375
Q39.1094 -1.42188 33.8906 -1.42188
Q20.7969 -1.42188 13.1562 6.1875
Q5.51562 13.8125 5.51562 26.8125
Q5.51562 40.2344 12.7656 48.1094
Q20.0156 56 32.3281 56
Q43.3594 56 49.7812 48.8906
Q56.2031 41.7969 56.2031 29.5938
M47.2188 32.2344
Q47.125 39.5938 43.0938 43.9844
Q39.0625 48.3906 32.4219 48.3906
Q24.9062 48.3906 20.3906 44.1406
Q15.875 39.8906 15.1875 32.1719
z
" id="BitstreamVeraSans-Roman-65"/>
      <path d="
M52 44.1875
Q55.375 50.25 60.0625 53.125
Q64.75 56 71.0938 56
Q79.6406 56 84.2812 50.0156
Q88.9219 44.0469 88.9219 33.0156
L88.9219 0
L79.8906 0
L79.8906 32.7188
Q79.8906 40.5781 77.0938 44.375
Q74.3125 48.1875 68.6094 48.1875
Q61.625 48.1875 57.5625 43.5469
Q53.5156 38.9219 53.5156 30.9062
L53.5156 0
L44.4844 0
L44.4844 32.7188
Q44.4844 40.625 41.7031 44.4062
Q38.9219 48.1875 33.1094 48.1875
Q26.2188 48.1875 22.1562 43.5312
Q18.1094 38.875 18.1094 30.9062
L18.1094 0
L9.07812 0
L9.07812 54.6875
L18.1094 54.6875
L18.1094 46.1875
Q21.1875 51.2188 25.4844 53.6094
Q29.7812 56 35.6875 56
Q41.6562 56 45.8281 52.9688
Q50 49.9531 52 44.1875" id="BitstreamVeraSans-Roman-6d"/>
      <path d="
M18.3125 70.2188
L18.3125 54.6875
L36.8125 54.6875
L36.8125 47.7031
L18.3125 47.7031
L18.3125 18.0156
Q18.3125 11.3281 20.1406 9.42188
Q21.9688 7.51562 27.5938 7.51562
L36.8125 7.51562
L36.8125 0
L27.5938 0
Q17.1875 0 13.2344 3.875
Q9.28125 7.76562 9.28125 18.0156
L9.28125 47.7031
L2.6875 47.7031
L2.6875 54.6875
L9.28125 54.6875
L9.28125 70.2188
z
" id="BitstreamVeraSans-Roman-74"/>
      <path d="
M9.42188 54.6875
L18.4062 54.6875
L18.4062 0
L9.42188 0
z

M9.42188 75.9844
L18.4062 75.9844
L18.4062 64.5938
L9.42188 64.5938
z
" id="BitstreamVeraSans-Roman-69"/>
     </defs>
     <g transform="translate(141.905625 176.955)scale(0.12 -0.12)">
      <use xlink:href="#BitstreamVeraSans-Roman-74"/>
      <use x="39.208984375" xlink:href="#BitstreamVeraSans-Roman-69"/>
      <use x="66.9921875" xlink:href="#BitstreamVeraSans-Roman-6d"/>
      <use x="164.404296875" xlink:href="#BitstreamVeraSans-Roman-65"/>
     </g>
    </g>
   </g>
   <g id="matplotlib.axis_2">
    <g id="ytick_1">
     <g id="line2d_14">
      <defs>
       <path d="
M0 0
L4 0" id="mfd823e073d"/>
      </defs>
      <g>
       <use style="stroke:#000000;stroke-linecap:butt;stroke-width:0.5;" x="44.28" xlink:href="#mfd823e073d" y="147.24"/>
      </g>
     </g>
     <g id="line2d_15">
      <defs>
       <path d="
M0 0
L-4 0" id="m03d7dc714b"/>
      </defs>
      <g>
       <use style="stroke:#000000;stroke-linecap:butt;stroke-width:0.5;" x="265.68" xlink:href="#m03d7dc714b" y="147.24"/>
      </g>
     </g>
     <g id="text_8">
      <!-- 0 -->
      <g transform="translate(34.233125 151.6078125)scale(0.12 -0.12)">
       <use xlink:href="#BitstreamVeraSans-Roman-30"/>
      </g>
     </g>
    </g>
    <g id="ytick_2">
     <g id="line2d_16">
      <defs>
       <path d="
M0 0
L4 0" id="mfd823e073d"/>
      </defs>
      <g>
       <use style="stroke:#000000;stroke-linecap:butt;stroke-width:0.5;" x="44.28" xlink:href="#mfd823e073d" y="124.368377208"/>
      </g>
     </g>
     <g id="line2d_17">
      <defs>
       <path d="
M0 0
L-4 0" id="m03d7dc714b"/>
      </defs>
      <g>
       <use style="stroke:#000000;stroke-linecap:butt;stroke-width:0.5;" x="265.68" xlink:href="#m03d7dc714b" y="124.368377208"/>
      </g>
     </g>
     <g id="text_9">
      <!-- 2 -->
      <g transform="translate(34.72625 128.821502208)scale(0.12 -0.12)">
       <use xlink:href="#BitstreamVeraSans-Roman-32"/>
      </g>
     </g>
    </g>
    <g id="ytick_3">
     <g id="line2d_18">
      <defs>
       <path d="
M0 0
L4 0" id="mfd823e073d"/>
      </defs>
      <g>
       <use style="stroke:#000000;stroke-linecap:butt;stroke-width:0.5;" x="44.28" xlink:href="#mfd823e073d" y="101.496754416"/>
      </g>
     </g>
     <g id="line2d_19">
      <defs>
       <path d="
M0 0
L-4 0" id="m03d7dc714b"/>
      </defs>
      <g>
       <use style="stroke:#000000;stroke-linecap:butt;stroke-width:0.5;" x="265.68" xlink:href="#m03d7dc714b" y="101.496754416"/>
      </g>
     </g>
     <g id="text_10">
      <!-- 4 -->
      <g transform="translate(33.905 105.871129416)scale(0.12 -0.12)">
       <use xlink:href="#BitstreamVeraSans-Roman-34"/>
      </g>
     </g>
    </g>
    <g id="ytick_4">
     <g id="line2d_20">
      <defs>
       <path d="
M0 0
L4 0" id="mfd823e073d"/>
      </defs>
      <g>
       <use style="stroke:#000000;stroke-linecap:butt;stroke-width:0.5;" x="44.28" xlink:href="#mfd823e073d" y="78.6251316242"/>
      </g>
     </g>
     <g id="line2d_21">
      <defs>
       <path d="
M0 0
L-4 0" id="m03d7dc714b"/>
      </defs>
      <g>
       <use style="stroke:#000000;stroke-linecap:butt;stroke-width:0.5;" x="265.68" xlink:href="#m03d7dc714b" y="78.6251316242"/>
      </g>
     </g>
     <g id="text_11">
      <!-- 6 -->
      <g transform="translate(34.23875 82.9929441242)scale(0.12 -0.12)">
       <use xlink:href="#BitstreamVeraSans-Roman-36"/>
      </g>
     </g>
    </g>
    <g id="ytick_5">
     <g id="line2d_22">
      <defs>
       <path d="
M0 0
L4 0" id="mfd823e073d"/>
      </defs>
      <g>
       <use style="stroke:#000000;stroke-linecap:butt;stroke-width:0.5;" x="44.28" xlink:href="#mfd823e073d" y="55.7535088322"/>
      </g>
     </g>
     <g id="line2d_23">
      <defs>
       <path d="
M0 0
L-4 0" id="m03d7dc714b"/>
      </defs>
      <g>
       <use style="stroke:#000000;stroke-linecap:butt;stroke-width:0.5;" x="265.68" xlink:href="#m03d7dc714b" y="55.7535088322"/>
      </g>
     </g>
     <g id="text_12">
      <!-- 8 -->
      <g transform="translate(34.28 60.1213213322)scale(0.12 -0.12)">
       <use xlink:href="#BitstreamVeraSans-Roman-38"/>
      </g>
     </g>
    </g>
    <g id="ytick_6">
     <g id="line2d_24">
      <defs>
       <path d="
M0 0
L4 0" id="mfd823e073d"/>
      </defs>
      <g>
       <use style="stroke:#000000;stroke-linecap:butt;stroke-width:0.5;" x="44.28" xlink:href="#mfd823e073d" y="32.8818860403"/>
      </g>
     </g>
     <g id="line2d_25">
      <defs>
       <path d="
M0 0
L-4 0" id="m03d7dc714b"/>
      </defs>
      <g>
       <use style="stroke:#000000;stroke-linecap:butt;stroke-width:0.5;" x="265.68" xlink:href="#m03d7dc714b" y="32.8818860403"/>
      </g>
     </g>
     <g id="text_13">
      <!-- 10 -->
      <g transform="translate(27.125 37.2496985403)scale(0.12 -0.12)">
       <use xlink:href="#BitstreamVeraSans-Roman-31"/>
       <use x="63.623046875" xlink:href="#BitstreamVeraSans-Roman-30"/>
      </g>
     </g>
    </g>
    <g id="text_14">
     <!-- fluorescence intensity -->
     <defs>
      <path id="BitstreamVeraSans-Roman-20"/>
      <path d="
M37.1094 75.9844
L37.1094 68.5
L28.5156 68.5
Q23.6875 68.5 21.7969 66.5469
Q19.9219 64.5938 19.9219 59.5156
L19.9219 54.6875
L34.7188 54.6875
L34.7188 47.7031
L19.9219 47.7031
L19.9219 0
L10.8906 0
L10.8906 47.7031
L2.29688 47.7031
L2.29688 54.6875
L10.8906 54.6875
L10.8906 58.5
Q10.8906 67.625 15.1406 71.7969
Q19.3906 75.9844 28.6094 75.9844
z
" id="BitstreamVeraSans-Roman-66"/>
      <path d="
M54.8906 33.0156
L54.8906 0
L45.9062 0
L45.9062 32.7188
Q45.9062 40.4844 42.875 44.3281
Q39.8438 48.1875 33.7969 48.1875
Q26.5156 48.1875 22.3125 43.5469
Q18.1094 38.9219 18.1094 30.9062
L18.1094 0
L9.07812 0
L9.07812 54.6875
L18.1094 54.6875
L18.1094 46.1875
Q21.3438 51.125 25.7031 53.5625
Q30.0781 56 35.7969 56
Q45.2188 56 50.0469 50.1719
Q54.8906 44.3438 54.8906 33.0156" id="BitstreamVeraSans-Roman-6e"/>
      <path d="
M30.6094 48.3906
Q23.3906 48.3906 19.1875 42.75
Q14.9844 37.1094 14.9844 27.2969
Q14.9844 17.4844 19.1562 11.8438
Q23.3438 6.20312 30.6094 6.20312
Q37.7969 6.20312 41.9844 11.8594
Q46.1875 17.5312 46.1875 27.2969
Q46.1875 37.0156 41.9844 42.7031
Q37.7969 48.3906 30.6094 48.3906
M30.6094 56
Q42.3281 56 49.0156 48.375
Q55.7188 40.7656 55.7188 27.2969
Q55.7188 13.875 49.0156 6.21875
Q42.3281 -1.42188 30.6094 -1.42188
Q18.8438 -1.42188 12.1719 6.21875
Q5.51562 13.875 5.51562 27.2969
Q5.51562 40.7656 12.1719 48.375
Q18.8438 56 30.6094 56" id="BitstreamVeraSans-Roman-6f"/>
      <path d="
M9.42188 75.9844
L18.4062 75.9844
L18.4062 0
L9.42188 0
z
" id="BitstreamVeraSans-Roman-6c"/>
      <path d="
M32.1719 -5.07812
Q28.375 -14.8438 24.75 -17.8125
Q21.1406 -20.7969 15.0938 -20.7969
L7.90625 -20.7969
L7.90625 -13.2812
L13.1875 -13.2812
Q16.8906 -13.2812 18.9375 -11.5156
Q21 -9.76562 23.4844 -3.21875
L25.0938 0.875
L2.98438 54.6875
L12.5 54.6875
L29.5938 11.9219
L46.6875 54.6875
L56.2031 54.6875
z
" id="BitstreamVeraSans-Roman-79"/>
      <path d="
M8.5 21.5781
L8.5 54.6875
L17.4844 54.6875
L17.4844 21.9219
Q17.4844 14.1562 20.5 10.2656
Q23.5312 6.39062 29.5938 6.39062
Q36.8594 6.39062 41.0781 11.0312
Q45.3125 15.6719 45.3125 23.6875
L45.3125 54.6875
L54.2969 54.6875
L54.2969 0
L45.3125 0
L45.3125 8.40625
Q42.0469 3.42188 37.7188 1
Q33.4062 -1.42188 27.6875 -1.42188
Q18.2656 -1.42188 13.375 4.4375
Q8.5 10.2969 8.5 21.5781" id="BitstreamVeraSans-Roman-75"/>
      <path d="
M41.1094 46.2969
Q39.5938 47.1719 37.8125 47.5781
Q36.0312 48 33.8906 48
Q26.2656 48 22.1875 43.0469
Q18.1094 38.0938 18.1094 28.8125
L18.1094 0
L9.07812 0
L9.07812 54.6875
L18.1094 54.6875
L18.1094 46.1875
Q20.9531 51.1719 25.4844 53.5781
Q30.0312 56 36.5312 56
Q37.4531 56 38.5781 55.875
Q39.7031 55.7656 41.0625 55.5156
z
" id="BitstreamVeraSans-Roman-72"/>
      <path d="
M44.2812 53.0781
L44.2812 44.5781
Q40.4844 46.5312 36.375 47.5
Q32.2812 48.4844 27.875 48.4844
Q21.1875 48.4844 17.8438 46.4375
Q14.5 44.3906 14.5 40.2812
Q14.5 37.1562 16.8906 35.375
Q19.2812 33.5938 26.5156 31.9844
L29.5938 31.2969
Q39.1562 29.25 43.1875 25.5156
Q47.2188 21.7812 47.2188 15.0938
Q47.2188 7.46875 41.1875 3.01562
Q35.1562 -1.42188 24.6094 -1.42188
Q20.2188 -1.42188 15.4531 -0.5625
Q10.6875 0.296875 5.42188 2
L5.42188 11.2812
Q10.4062 8.6875 15.2344 7.39062
Q20.0625 6.10938 24.8125 6.10938
Q31.1562 6.10938 34.5625 8.28125
Q37.9844 10.4531 37.9844 14.4062
Q37.9844 18.0625 35.5156 20.0156
Q33.0625 21.9688 24.7031 23.7812
L21.5781 24.5156
Q13.2344 26.2656 9.51562 29.9062
Q5.8125 33.5469 5.8125 39.8906
Q5.8125 47.6094 11.2812 51.7969
Q16.75 56 26.8125 56
Q31.7812 56 36.1719 55.2656
Q40.5781 54.5469 44.2812 53.0781" id="BitstreamVeraSans-Roman-73"/>
      <path d="
M48.7812 52.5938
L48.7812 44.1875
Q44.9688 46.2969 41.1406 47.3438
Q37.3125 48.3906 33.4062 48.3906
Q24.6562 48.3906 19.8125 42.8438
Q14.9844 37.3125 14.9844 27.2969
Q14.9844 17.2812 19.8125 11.7344
Q24.6562 6.20312 33.4062 6.20312
Q37.3125 6.20312 41.1406 7.25
Q44.9688 8.29688 48.7812 10.4062
L48.7812 2.09375
Q45.0156 0.34375 40.9844 -0.53125
Q36.9688 -1.42188 32.4219 -1.42188
Q20.0625 -1.42188 12.7812 6.34375
Q5.51562 14.1094 5.51562 27.2969
Q5.51562 40.6719 12.8594 48.3281
Q20.2188 56 33.0156 56
Q37.1562 56 41.1094 55.1406
Q45.0625 54.2969 48.7812 52.5938" id="BitstreamVeraSans-Roman-63"/>
     </defs>
     <g transform="translate(22.125 147.6703125)rotate(-90.0)scale(0.12 -0.12)">
      <use xlink:href="#BitstreamVeraSans-Roman-66"/>
      <use x="35.205078125" xlink:href="#BitstreamVeraSans-Roman-6c"/>
      <use x="62.98828125" xlink:href="#BitstreamVeraSans-Roman-75"/>
      <use x="126.3671875" xlink:href="#BitstreamVeraSans-Roman-6f"/>
      <use x="187.548828125" xlink:href="#BitstreamVeraSans-Roman-72"/>
      <use x="226.412109375" xlink:href="#BitstreamVeraSans-Roman-65"/>
      <use x="287.935546875" xlink:href="#BitstreamVeraSans-Roman-73"/>
      <use x="340.03515625" xlink:href="#BitstreamVeraSans-Roman-63"/>
      <use x="395.015625" xlink:href="#BitstreamVeraSans-Roman-65"/>
      <use x="456.5390625" xlink:href="#BitstreamVeraSans-Roman-6e"/>
      <use x="519.91796875" xlink:href="#BitstreamVeraSans-Roman-63"/>
      <use x="574.8984375" xlink:href="#BitstreamVeraSans-Roman-65"/>
      <use x="636.421875" xlink:href="#BitstreamVeraSans-Roman-20"/>
      <use x="668.208984375" xlink:href="#BitstreamVeraSans-Roman-69"/>
      <use x="695.9921875" xlink:href="#BitstreamVeraSans-Roman-6e"/>
      <use x="759.37109375" xlink:href="#BitstreamVeraSans-Roman-74"/>
      <use x="798.580078125" xlink:href="#BitstreamVeraSans-Roman-65"/>
      <use x="860.103515625" xlink:href="#BitstreamVeraSans-Roman-6e"/>
      <use x="923.482421875" xlink:href="#BitstreamVeraSans-Roman-73"/>
      <use x="975.58203125" xlink:href="#BitstreamVeraSans-Roman-69"/>
      <use x="1003.36523438" xlink:href="#BitstreamVeraSans-Roman-74"/>
      <use x="1042.57421875" xlink:href="#BitstreamVeraSans-Roman-79"/>
     </g>
    </g>
   </g>
   <g id="patch_3">
    <path d="
M44.28 18.72
L265.68 18.72" style="fill:none;stroke:#000000;"/>
   </g>
   <g id="patch_4">
    <path d="
M265.68 149.76
L265.68 18.72" style="fill:none;stroke:#000000;"/>
   </g>
   <g id="patch_5">
    <path d="
M44.28 149.76
L265.68 149.76" style="fill:none;stroke:#000000;"/>
   </g>
   <g id="patch_6">
    <path d="
M44.28 149.76
L44.28 18.72" style="fill:none;stroke:#000000;"/>
   </g>
  </g>
 </g>
 <defs>
  <clipPath id="p6310fb15ea">
   <rect height="131.04" width="221.4" x="44.28" y="18.72"/>
  </clipPath>
 </defs>
</svg>
